<svg xmlns="http://www.w3.org/2000/svg" xmlns:xlink="http://www.w3.org/1999/xlink" width="500" zoomAndPan="magnify" viewBox="0 0 375 374.999991" height="500" preserveAspectRatio="xMidYMid meet" version="1.0"><defs><g/><clipPath id="9ff548db84"><path d="M 101.007812 212 L 273.988281 212 L 273.988281 215 L 101.007812 215 Z M 101.007812 212 " clip-rule="nonzero"/></clipPath><clipPath id="5e2a03aa49"><path d="M 164 207.070312 L 211 207.070312 L 211 219.820312 L 164 219.820312 Z M 164 207.070312 " clip-rule="nonzero"/></clipPath></defs><g fill="#222222" fill-opacity="0.302"><g transform="translate(3.145726, 199.788571)"><g><path d="M 9.535156 -4.613281 L 24.488281 -20.789062 L 24.488281 -25.363281 L 2.441406 -25.363281 L 2.441406 -20.789062 L 17.085938 -20.789062 L 2.136719 -4.613281 L 2.136719 0 L 24.601562 0 L 24.601562 -4.613281 Z M 9.535156 -4.613281 "/></g></g></g><g fill="#222222" fill-opacity="0.302"><g transform="translate(29.376379, 199.788571)"><g><path d="M 15.105469 0.648438 C 24.832031 0.648438 28.453125 -5.683594 28.453125 -12.664062 C 28.453125 -19.527344 24.832031 -26.011719 15.105469 -26.011719 C 5.378906 -26.011719 1.714844 -19.566406 1.714844 -12.664062 C 1.714844 -5.644531 5.378906 0.648438 15.105469 0.648438 Z M 7.78125 -12.664062 C 7.78125 -18.269531 9.535156 -21.28125 15.105469 -21.28125 C 20.671875 -21.28125 22.425781 -18.269531 22.425781 -12.664062 C 22.425781 -7.132812 20.671875 -4.121094 15.105469 -4.121094 C 9.535156 -4.121094 7.78125 -7.132812 7.78125 -12.664062 Z M 7.78125 -12.664062 "/></g></g></g><g fill="#222222" fill-opacity="0.302"><g transform="translate(59.534009, 199.788571)"><g><path d="M 23.304688 -6.179688 C 23.304688 -9.839844 21.28125 -11.136719 18.6875 -11.785156 C 21.703125 -12.433594 23.992188 -14.835938 23.992188 -18.421875 C 23.992188 -22.542969 21.207031 -25.363281 15.601562 -25.363281 L 2.210938 -25.363281 L 2.210938 0 L 8.046875 0 L 8.046875 -9.800781 L 13.273438 -9.800781 C 15.789062 -9.800781 17.507812 -8.582031 17.507812 -5.722656 L 17.507812 -4.386719 C 17.507812 -2.289062 17.699219 -0.914062 18.003906 0 L 23.800781 0 C 23.535156 -1.21875 23.304688 -2.363281 23.304688 -4.460938 Z M 14.304688 -13.960938 L 8.046875 -13.960938 L 8.046875 -20.863281 L 14.304688 -20.863281 C 16.820312 -20.863281 17.925781 -19.71875 17.925781 -17.582031 C 17.925781 -15.21875 16.933594 -13.960938 14.304688 -13.960938 Z M 14.304688 -13.960938 "/></g></g></g><g fill="#222222" fill-opacity="0.302"><g transform="translate(85.269013, 199.788571)"><g><path d="M 8.007812 -4.613281 L 8.007812 -10.792969 L 20.976562 -10.792969 L 20.976562 -15.105469 L 8.007812 -15.105469 L 8.007812 -20.789062 L 22.121094 -20.789062 L 22.121094 -25.363281 L 2.210938 -25.363281 L 2.210938 0 L 22.238281 0 L 22.238281 -4.613281 Z M 8.007812 -4.613281 "/></g></g></g><g fill="#222222" fill-opacity="0.302"><g transform="translate(109.402735, 199.788571)"><g><path d="M 21.207031 -25.363281 L 21.207031 -4.121094 C 20.789062 -5.417969 20.292969 -6.714844 19.832031 -7.78125 L 11.824219 -25.363281 L 2.210938 -25.363281 L 2.210938 0 L 7.78125 0 L 7.78125 -21.207031 C 8.164062 -19.910156 8.65625 -18.613281 9.230469 -17.316406 L 17.164062 0 L 26.777344 0 L 26.777344 -25.363281 Z M 21.207031 -25.363281 "/></g></g></g><g fill="#222222" fill-opacity="0.302"><g transform="translate(138.378457, 199.788571)"><g/></g></g><g fill="#222222" fill-opacity="0.302"><g transform="translate(148.024334, 199.788571)"><g><path d="M 15.675781 -25.363281 L 2.210938 -25.363281 L 2.210938 0 L 8.046875 0 L 8.046875 -8.847656 L 15.675781 -8.847656 C 21.4375 -8.847656 23.722656 -12.546875 23.722656 -17.238281 C 23.722656 -21.664062 21.4375 -25.363281 15.675781 -25.363281 Z M 13.84375 -13.347656 L 8.046875 -13.347656 L 8.046875 -20.863281 L 13.882812 -20.863281 C 16.707031 -20.863281 17.699219 -19.335938 17.699219 -17.203125 C 17.699219 -14.988281 16.667969 -13.347656 13.84375 -13.347656 Z M 13.84375 -13.347656 "/></g></g></g><g fill="#222222" fill-opacity="0.302"><g transform="translate(172.882469, 199.788571)"><g><path d="M 8.007812 -4.613281 L 8.007812 -10.792969 L 20.976562 -10.792969 L 20.976562 -15.105469 L 8.007812 -15.105469 L 8.007812 -20.789062 L 22.121094 -20.789062 L 22.121094 -25.363281 L 2.210938 -25.363281 L 2.210938 0 L 22.238281 0 L 22.238281 -4.613281 Z M 8.007812 -4.613281 "/></g></g></g><g fill="#222222" fill-opacity="0.302"><g transform="translate(197.016192, 199.788571)"><g><path d="M 1.488281 -8.351562 C 1.679688 -3.738281 4.539062 0.648438 12.890625 0.648438 C 20.824219 0.648438 23.914062 -2.59375 23.914062 -7.589844 C 23.914062 -12.015625 21.320312 -14.457031 16.171875 -15.027344 L 10.871094 -15.675781 C 8.773438 -15.90625 7.894531 -17.011719 7.894531 -18.5 C 7.894531 -20.480469 9.535156 -21.742188 12.625 -21.742188 C 15.980469 -21.742188 17.660156 -20.214844 17.964844 -17.851562 L 23.648438 -17.851562 C 23.34375 -22.351562 20.214844 -26.011719 12.625 -26.011719 C 5.492188 -26.011719 2.058594 -22.734375 2.058594 -18.15625 C 2.058594 -13.960938 4.578125 -11.480469 9.078125 -10.945312 L 14.683594 -10.222656 C 16.933594 -9.917969 18.078125 -8.925781 18.078125 -7.019531 C 18.078125 -4.996094 16.820312 -3.660156 12.96875 -3.660156 C 8.964844 -3.660156 7.285156 -5.644531 7.132812 -8.351562 Z M 1.488281 -8.351562 "/></g></g></g><g fill="#222222" fill-opacity="0.302"><g transform="translate(222.484342, 199.788571)"><g><path d="M 14.988281 0.648438 C 23.953125 0.648438 27.460938 -2.9375 27.996094 -10.261719 L 22.007812 -10.261719 C 21.703125 -6.292969 19.796875 -4.121094 14.914062 -4.121094 C 9.839844 -4.121094 7.78125 -7.054688 7.78125 -12.664062 C 7.78125 -18.347656 9.992188 -21.28125 15.105469 -21.28125 C 19.796875 -21.28125 21.589844 -19.148438 21.929688 -15.410156 L 27.882812 -15.410156 C 27.308594 -22.351562 23.761719 -26.011719 15.027344 -26.011719 C 5.492188 -26.011719 1.714844 -19.679688 1.714844 -12.664062 C 1.714844 -5.53125 5.453125 0.648438 14.988281 0.648438 Z M 14.988281 0.648438 "/></g></g></g><g fill="#222222" fill-opacity="0.302"><g transform="translate(251.993835, 199.788571)"><g><path d="M 22.007812 0 L 27.84375 0 L 18.917969 -25.363281 L 10.070312 -25.363281 L 1.144531 0 L 6.980469 0 L 8.8125 -5.1875 L 20.175781 -5.1875 Z M 10.375 -9.648438 L 14.492188 -21.359375 L 18.613281 -9.648438 Z M 10.375 -9.648438 "/></g></g></g><g fill="#222222" fill-opacity="0.302"><g transform="translate(280.931435, 199.788571)"><g><path d="M 14.417969 -25.363281 L 2.210938 -25.363281 L 2.210938 0 L 14.417969 0 C 22.65625 0 26.394531 -6.027344 26.394531 -12.738281 C 26.394531 -19.414062 22.65625 -25.363281 14.417969 -25.363281 Z M 13.121094 -4.613281 L 8.007812 -4.613281 L 8.007812 -20.789062 L 13.121094 -20.789062 C 18.269531 -20.789062 20.367188 -18.15625 20.367188 -12.738281 C 20.367188 -7.363281 18.308594 -4.613281 13.121094 -4.613281 Z M 13.121094 -4.613281 "/></g></g></g><g fill="#222222" fill-opacity="0.302"><g transform="translate(308.76337, 199.788571)"><g><path d="M 15.105469 0.648438 C 24.832031 0.648438 28.453125 -5.683594 28.453125 -12.664062 C 28.453125 -19.527344 24.832031 -26.011719 15.105469 -26.011719 C 5.378906 -26.011719 1.714844 -19.566406 1.714844 -12.664062 C 1.714844 -5.644531 5.378906 0.648438 15.105469 0.648438 Z M 7.78125 -12.664062 C 7.78125 -18.269531 9.535156 -21.28125 15.105469 -21.28125 C 20.671875 -21.28125 22.425781 -18.269531 22.425781 -12.664062 C 22.425781 -7.132812 20.671875 -4.121094 15.105469 -4.121094 C 9.535156 -4.121094 7.78125 -7.132812 7.78125 -12.664062 Z M 7.78125 -12.664062 "/></g></g></g><g fill="#222222" fill-opacity="0.302"><g transform="translate(338.921, 199.788571)"><g><path d="M 23.304688 -6.179688 C 23.304688 -9.839844 21.28125 -11.136719 18.6875 -11.785156 C 21.703125 -12.433594 23.992188 -14.835938 23.992188 -18.421875 C 23.992188 -22.542969 21.207031 -25.363281 15.601562 -25.363281 L 2.210938 -25.363281 L 2.210938 0 L 8.046875 0 L 8.046875 -9.800781 L 13.273438 -9.800781 C 15.789062 -9.800781 17.507812 -8.582031 17.507812 -5.722656 L 17.507812 -4.386719 C 17.507812 -2.289062 17.699219 -0.914062 18.003906 0 L 23.800781 0 C 23.535156 -1.21875 23.304688 -2.363281 23.304688 -4.460938 Z M 14.304688 -13.960938 L 8.046875 -13.960938 L 8.046875 -20.863281 L 14.304688 -20.863281 C 16.820312 -20.863281 17.925781 -19.71875 17.925781 -17.582031 C 17.925781 -15.21875 16.933594 -13.960938 14.304688 -13.960938 Z M 14.304688 -13.960938 "/></g></g></g><g fill="#222222" fill-opacity="1"><g transform="translate(4.613565, 197.909819)"><g><path d="M 9.535156 -4.613281 L 24.488281 -20.789062 L 24.488281 -25.363281 L 2.441406 -25.363281 L 2.441406 -20.789062 L 17.085938 -20.789062 L 2.136719 -4.613281 L 2.136719 0 L 24.601562 0 L 24.601562 -4.613281 Z M 9.535156 -4.613281 "/></g></g></g><g fill="#222222" fill-opacity="1"><g transform="translate(30.844218, 197.909819)"><g><path d="M 15.105469 0.648438 C 24.832031 0.648438 28.453125 -5.683594 28.453125 -12.664062 C 28.453125 -19.527344 24.832031 -26.011719 15.105469 -26.011719 C 5.378906 -26.011719 1.714844 -19.566406 1.714844 -12.664062 C 1.714844 -5.644531 5.378906 0.648438 15.105469 0.648438 Z M 7.78125 -12.664062 C 7.78125 -18.269531 9.535156 -21.28125 15.105469 -21.28125 C 20.671875 -21.28125 22.425781 -18.269531 22.425781 -12.664062 C 22.425781 -7.132812 20.671875 -4.121094 15.105469 -4.121094 C 9.535156 -4.121094 7.78125 -7.132812 7.78125 -12.664062 Z M 7.78125 -12.664062 "/></g></g></g><g fill="#222222" fill-opacity="1"><g transform="translate(61.001848, 197.909819)"><g><path d="M 23.304688 -6.179688 C 23.304688 -9.839844 21.28125 -11.136719 18.6875 -11.785156 C 21.703125 -12.433594 23.992188 -14.835938 23.992188 -18.421875 C 23.992188 -22.542969 21.207031 -25.363281 15.601562 -25.363281 L 2.210938 -25.363281 L 2.210938 0 L 8.046875 0 L 8.046875 -9.800781 L 13.273438 -9.800781 C 15.789062 -9.800781 17.507812 -8.582031 17.507812 -5.722656 L 17.507812 -4.386719 C 17.507812 -2.289062 17.699219 -0.914062 18.003906 0 L 23.800781 0 C 23.535156 -1.21875 23.304688 -2.363281 23.304688 -4.460938 Z M 14.304688 -13.960938 L 8.046875 -13.960938 L 8.046875 -20.863281 L 14.304688 -20.863281 C 16.820312 -20.863281 17.925781 -19.71875 17.925781 -17.582031 C 17.925781 -15.21875 16.933594 -13.960938 14.304688 -13.960938 Z M 14.304688 -13.960938 "/></g></g></g><g fill="#222222" fill-opacity="1"><g transform="translate(86.736852, 197.909819)"><g><path d="M 8.007812 -4.613281 L 8.007812 -10.792969 L 20.976562 -10.792969 L 20.976562 -15.105469 L 8.007812 -15.105469 L 8.007812 -20.789062 L 22.121094 -20.789062 L 22.121094 -25.363281 L 2.210938 -25.363281 L 2.210938 0 L 22.238281 0 L 22.238281 -4.613281 Z M 8.007812 -4.613281 "/></g></g></g><g fill="#222222" fill-opacity="1"><g transform="translate(110.870575, 197.909819)"><g><path d="M 21.207031 -25.363281 L 21.207031 -4.121094 C 20.789062 -5.417969 20.292969 -6.714844 19.832031 -7.78125 L 11.824219 -25.363281 L 2.210938 -25.363281 L 2.210938 0 L 7.78125 0 L 7.78125 -21.207031 C 8.164062 -19.910156 8.65625 -18.613281 9.230469 -17.316406 L 17.164062 0 L 26.777344 0 L 26.777344 -25.363281 Z M 21.207031 -25.363281 "/></g></g></g><g fill="#222222" fill-opacity="1"><g transform="translate(139.846296, 197.909819)"><g/></g></g><g fill="#222222" fill-opacity="1"><g transform="translate(149.492173, 197.909819)"><g><path d="M 15.675781 -25.363281 L 2.210938 -25.363281 L 2.210938 0 L 8.046875 0 L 8.046875 -8.847656 L 15.675781 -8.847656 C 21.4375 -8.847656 23.722656 -12.546875 23.722656 -17.238281 C 23.722656 -21.664062 21.4375 -25.363281 15.675781 -25.363281 Z M 13.84375 -13.347656 L 8.046875 -13.347656 L 8.046875 -20.863281 L 13.882812 -20.863281 C 16.707031 -20.863281 17.699219 -19.335938 17.699219 -17.203125 C 17.699219 -14.988281 16.667969 -13.347656 13.84375 -13.347656 Z M 13.84375 -13.347656 "/></g></g></g><g fill="#222222" fill-opacity="1"><g transform="translate(174.350309, 197.909819)"><g><path d="M 8.007812 -4.613281 L 8.007812 -10.792969 L 20.976562 -10.792969 L 20.976562 -15.105469 L 8.007812 -15.105469 L 8.007812 -20.789062 L 22.121094 -20.789062 L 22.121094 -25.363281 L 2.210938 -25.363281 L 2.210938 0 L 22.238281 0 L 22.238281 -4.613281 Z M 8.007812 -4.613281 "/></g></g></g><g fill="#222222" fill-opacity="1"><g transform="translate(198.484031, 197.909819)"><g><path d="M 1.488281 -8.351562 C 1.679688 -3.738281 4.539062 0.648438 12.890625 0.648438 C 20.824219 0.648438 23.914062 -2.59375 23.914062 -7.589844 C 23.914062 -12.015625 21.320312 -14.457031 16.171875 -15.027344 L 10.871094 -15.675781 C 8.773438 -15.90625 7.894531 -17.011719 7.894531 -18.5 C 7.894531 -20.480469 9.535156 -21.742188 12.625 -21.742188 C 15.980469 -21.742188 17.660156 -20.214844 17.964844 -17.851562 L 23.648438 -17.851562 C 23.34375 -22.351562 20.214844 -26.011719 12.625 -26.011719 C 5.492188 -26.011719 2.058594 -22.734375 2.058594 -18.15625 C 2.058594 -13.960938 4.578125 -11.480469 9.078125 -10.945312 L 14.683594 -10.222656 C 16.933594 -9.917969 18.078125 -8.925781 18.078125 -7.019531 C 18.078125 -4.996094 16.820312 -3.660156 12.96875 -3.660156 C 8.964844 -3.660156 7.285156 -5.644531 7.132812 -8.351562 Z M 1.488281 -8.351562 "/></g></g></g><g fill="#222222" fill-opacity="1"><g transform="translate(223.952181, 197.909819)"><g><path d="M 14.988281 0.648438 C 23.953125 0.648438 27.460938 -2.9375 27.996094 -10.261719 L 22.007812 -10.261719 C 21.703125 -6.292969 19.796875 -4.121094 14.914062 -4.121094 C 9.839844 -4.121094 7.78125 -7.054688 7.78125 -12.664062 C 7.78125 -18.347656 9.992188 -21.28125 15.105469 -21.28125 C 19.796875 -21.28125 21.589844 -19.148438 21.929688 -15.410156 L 27.882812 -15.410156 C 27.308594 -22.351562 23.761719 -26.011719 15.027344 -26.011719 C 5.492188 -26.011719 1.714844 -19.679688 1.714844 -12.664062 C 1.714844 -5.53125 5.453125 0.648438 14.988281 0.648438 Z M 14.988281 0.648438 "/></g></g></g><g fill="#222222" fill-opacity="1"><g transform="translate(253.461674, 197.909819)"><g><path d="M 22.007812 0 L 27.84375 0 L 18.917969 -25.363281 L 10.070312 -25.363281 L 1.144531 0 L 6.980469 0 L 8.8125 -5.1875 L 20.175781 -5.1875 Z M 10.375 -9.648438 L 14.492188 -21.359375 L 18.613281 -9.648438 Z M 10.375 -9.648438 "/></g></g></g><g fill="#222222" fill-opacity="1"><g transform="translate(282.399274, 197.909819)"><g><path d="M 14.417969 -25.363281 L 2.210938 -25.363281 L 2.210938 0 L 14.417969 0 C 22.65625 0 26.394531 -6.027344 26.394531 -12.738281 C 26.394531 -19.414062 22.65625 -25.363281 14.417969 -25.363281 Z M 13.121094 -4.613281 L 8.007812 -4.613281 L 8.007812 -20.789062 L 13.121094 -20.789062 C 18.269531 -20.789062 20.367188 -18.15625 20.367188 -12.738281 C 20.367188 -7.363281 18.308594 -4.613281 13.121094 -4.613281 Z M 13.121094 -4.613281 "/></g></g></g><g fill="#222222" fill-opacity="1"><g transform="translate(310.231209, 197.909819)"><g><path d="M 15.105469 0.648438 C 24.832031 0.648438 28.453125 -5.683594 28.453125 -12.664062 C 28.453125 -19.527344 24.832031 -26.011719 15.105469 -26.011719 C 5.378906 -26.011719 1.714844 -19.566406 1.714844 -12.664062 C 1.714844 -5.644531 5.378906 0.648438 15.105469 0.648438 Z M 7.78125 -12.664062 C 7.78125 -18.269531 9.535156 -21.28125 15.105469 -21.28125 C 20.671875 -21.28125 22.425781 -18.269531 22.425781 -12.664062 C 22.425781 -7.132812 20.671875 -4.121094 15.105469 -4.121094 C 9.535156 -4.121094 7.78125 -7.132812 7.78125 -12.664062 Z M 7.78125 -12.664062 "/></g></g></g><g fill="#222222" fill-opacity="1"><g transform="translate(340.38884, 197.909819)"><g><path d="M 23.304688 -6.179688 C 23.304688 -9.839844 21.28125 -11.136719 18.6875 -11.785156 C 21.703125 -12.433594 23.992188 -14.835938 23.992188 -18.421875 C 23.992188 -22.542969 21.207031 -25.363281 15.601562 -25.363281 L 2.210938 -25.363281 L 2.210938 0 L 8.046875 0 L 8.046875 -9.800781 L 13.273438 -9.800781 C 15.789062 -9.800781 17.507812 -8.582031 17.507812 -5.722656 L 17.507812 -4.386719 C 17.507812 -2.289062 17.699219 -0.914062 18.003906 0 L 23.800781 0 C 23.535156 -1.21875 23.304688 -2.363281 23.304688 -4.460938 Z M 14.304688 -13.960938 L 8.046875 -13.960938 L 8.046875 -20.863281 L 14.304688 -20.863281 C 16.820312 -20.863281 17.925781 -19.71875 17.925781 -17.582031 C 17.925781 -15.21875 16.933594 -13.960938 14.304688 -13.960938 Z M 14.304688 -13.960938 "/></g></g></g><g clip-path="url(#9ff548db84)"><path fill="#d9d9d9" d="M 273.882812 213.445312 C 273.882812 213.445312 265.796875 213.558594 253.121094 213.707031 C 244.496094 213.8125 233.746094 213.9375 221.972656 214.050781 C 216.394531 214.109375 210.589844 214.160156 204.667969 214.199219 C 198.972656 214.238281 193.167969 214.273438 187.363281 214.289062 C 182.730469 214.300781 178.101562 214.308594 173.519531 214.292969 C 166.40625 214.265625 159.417969 214.207031 152.757812 214.140625 C 145.335938 214.074219 138.324219 213.988281 131.992188 213.90625 C 113.507812 213.664062 100.84375 213.445312 100.84375 213.445312 C 100.84375 213.445312 113.507812 213.222656 131.992188 212.980469 C 138.324219 212.898438 145.335938 212.8125 152.757812 212.742188 C 159.417969 212.679688 166.40625 212.621094 173.519531 212.59375 C 178.101562 212.578125 182.730469 212.582031 187.363281 212.59375 C 193.167969 212.609375 198.972656 212.648438 204.667969 212.6875 C 210.589844 212.726562 216.394531 212.777344 221.972656 212.832031 C 233.746094 212.949219 244.496094 213.074219 253.121094 213.175781 C 265.796875 213.328125 273.882812 213.445312 273.882812 213.445312 Z M 273.882812 213.445312 " fill-opacity="1" fill-rule="evenodd"/></g><g clip-path="url(#5e2a03aa49)"><path fill="#737373" d="M 210.238281 213.875 C 209.542969 211.78125 207.886719 210.097656 205.820312 209.132812 C 203.902344 208.242188 201.628906 207.988281 199.472656 208.667969 C 198.273438 209.039062 197.171875 209.5625 196.121094 210.171875 C 194.835938 210.917969 193.636719 211.796875 192.445312 212.714844 C 191.246094 213.636719 190.058594 214.597656 188.8125 215.503906 C 188.144531 215.992188 187.460938 216.464844 186.75 216.902344 C 185.679688 217.558594 184.550781 218.132812 183.351562 218.609375 C 182.019531 219.113281 180.628906 219.445312 179.222656 219.59375 C 177.105469 219.8125 174.964844 219.652344 172.972656 219.183594 C 169.140625 218.28125 165.898438 216.28125 164.488281 213.875 C 166.078125 216.066406 169.390625 217.675781 173.164062 218.230469 C 175.058594 218.511719 177.058594 218.515625 179.027344 218.183594 C 180.285156 217.972656 181.53125 217.625 182.710938 217.105469 C 184.332031 216.425781 185.777344 215.511719 187.179688 214.554688 C 189.417969 213.03125 191.515625 211.351562 193.761719 209.980469 C 195.441406 208.949219 197.210938 208.109375 199.175781 207.628906 C 201.59375 207.0625 204.070312 207.488281 206.089844 208.632812 C 208.136719 209.792969 209.707031 211.660156 210.238281 213.875 Z M 210.238281 213.875 " fill-opacity="1" fill-rule="evenodd"/></g></svg>