<svg xmlns="http://www.w3.org/2000/svg" xmlns:xlink="http://www.w3.org/1999/xlink" width="320" zoomAndPan="magnify" viewBox="0 0 240 33.749998" height="45" preserveAspectRatio="xMidYMid meet" version="1.0"><defs><g/><clipPath id="ad8609a934"><path d="M 40.894531 23 L 109.980469 23 L 109.980469 25 L 40.894531 25 Z M 40.894531 23 " clip-rule="nonzero"/></clipPath><clipPath id="8bac69a0ad"><path d="M 66 21.109375 L 85 21.109375 L 85 26.320312 L 66 26.320312 Z M 66 21.109375 " clip-rule="nonzero"/></clipPath></defs><g clip-path="url(#ad8609a934)"><path fill="#d9d9d9" d="M 110.0625 23.714844 C 110.0625 23.714844 106.835938 23.761719 101.773438 23.824219 C 98.328125 23.863281 94.035156 23.917969 89.335938 23.964844 C 87.105469 23.984375 84.789062 24.007812 82.425781 24.023438 C 80.148438 24.039062 77.832031 24.054688 75.515625 24.0625 C 73.664062 24.066406 71.816406 24.066406 69.988281 24.0625 C 67.144531 24.050781 64.355469 24.027344 61.695312 24 C 58.730469 23.972656 55.929688 23.9375 53.402344 23.902344 C 46.023438 23.804688 40.964844 23.714844 40.964844 23.714844 C 40.964844 23.714844 46.023438 23.625 53.402344 23.527344 C 55.929688 23.492188 58.730469 23.457031 61.695312 23.429688 C 64.355469 23.402344 67.144531 23.378906 69.988281 23.367188 C 71.816406 23.359375 73.664062 23.363281 75.515625 23.367188 C 77.832031 23.375 80.148438 23.390625 82.425781 23.40625 C 84.789062 23.421875 87.105469 23.441406 89.335938 23.464844 C 94.035156 23.511719 98.328125 23.5625 101.773438 23.605469 C 106.835938 23.667969 110.0625 23.714844 110.0625 23.714844 Z M 110.0625 23.714844 " fill-opacity="1" fill-rule="evenodd"/></g><g clip-path="url(#8bac69a0ad)"><path fill="#737373" d="M 84.648438 23.890625 C 84.371094 23.035156 83.710938 22.347656 82.886719 21.953125 C 82.117188 21.589844 81.210938 21.484375 80.347656 21.761719 C 79.871094 21.914062 79.429688 22.128906 79.011719 22.378906 C 78.5 22.679688 78.019531 23.042969 77.542969 23.417969 C 77.0625 23.792969 76.589844 24.1875 76.09375 24.558594 C 75.824219 24.757812 75.554688 24.949219 75.269531 25.128906 C 74.839844 25.394531 74.390625 25.632812 73.910156 25.824219 C 73.378906 26.03125 72.824219 26.167969 72.265625 26.226562 C 71.417969 26.316406 70.5625 26.253906 69.769531 26.0625 C 68.238281 25.691406 66.941406 24.875 66.378906 23.890625 C 67.015625 24.785156 68.335938 25.445312 69.84375 25.671875 C 70.601562 25.785156 71.398438 25.789062 72.183594 25.652344 C 72.6875 25.566406 73.183594 25.421875 73.65625 25.210938 C 74.304688 24.933594 74.882812 24.558594 75.441406 24.167969 C 76.335938 23.546875 77.171875 22.859375 78.070312 22.296875 C 78.738281 21.878906 79.445312 21.535156 80.230469 21.339844 C 81.199219 21.105469 82.1875 21.28125 82.992188 21.75 C 83.808594 22.222656 84.4375 22.984375 84.648438 23.890625 Z M 84.648438 23.890625 " fill-opacity="1" fill-rule="evenodd"/></g><g fill="#222222" fill-opacity="0.4"><g transform="translate(10.644476, 18.852854)"><g><path d="M 3.410156 -1.648438 L 8.757812 -7.433594 L 8.757812 -9.070312 L 0.871094 -9.070312 L 0.871094 -7.433594 L 6.109375 -7.433594 L 0.765625 -1.648438 L 0.765625 0 L 8.796875 0 L 8.796875 -1.648438 Z M 3.410156 -1.648438 "/></g></g></g><g fill="#222222" fill-opacity="0.4"><g transform="translate(20.024222, 18.852854)"><g><path d="M 5.402344 0.230469 C 8.878906 0.230469 10.175781 -2.03125 10.175781 -4.527344 C 10.175781 -6.984375 8.878906 -9.300781 5.402344 -9.300781 C 1.921875 -9.300781 0.613281 -6.996094 0.613281 -4.527344 C 0.613281 -2.019531 1.921875 0.230469 5.402344 0.230469 Z M 2.78125 -4.527344 C 2.78125 -6.53125 3.410156 -7.609375 5.402344 -7.609375 C 7.390625 -7.609375 8.019531 -6.53125 8.019531 -4.527344 C 8.019531 -2.550781 7.390625 -1.472656 5.402344 -1.472656 C 3.410156 -1.472656 2.78125 -2.550781 2.78125 -4.527344 Z M 2.78125 -4.527344 "/></g></g></g><g fill="#222222" fill-opacity="0.4"><g transform="translate(30.808204, 18.852854)"><g><path d="M 8.332031 -2.210938 C 8.332031 -3.519531 7.609375 -3.984375 6.683594 -4.214844 C 7.761719 -4.445312 8.578125 -5.304688 8.578125 -6.585938 C 8.578125 -8.0625 7.582031 -9.070312 5.578125 -9.070312 L 0.792969 -9.070312 L 0.792969 0 L 2.878906 0 L 2.878906 -3.503906 L 4.746094 -3.503906 C 5.648438 -3.503906 6.261719 -3.070312 6.261719 -2.046875 L 6.261719 -1.570312 C 6.261719 -0.816406 6.328125 -0.328125 6.4375 0 L 8.511719 0 C 8.414062 -0.4375 8.332031 -0.84375 8.332031 -1.597656 Z M 5.113281 -4.992188 L 2.878906 -4.992188 L 2.878906 -7.460938 L 5.113281 -7.460938 C 6.015625 -7.460938 6.410156 -7.050781 6.410156 -6.289062 C 6.410156 -5.441406 6.054688 -4.992188 5.113281 -4.992188 Z M 5.113281 -4.992188 "/></g></g></g><g fill="#222222" fill-opacity="0.4"><g transform="translate(40.010712, 18.852854)"><g><path d="M 2.863281 -1.648438 L 2.863281 -3.859375 L 7.5 -3.859375 L 7.5 -5.402344 L 2.863281 -5.402344 L 2.863281 -7.433594 L 7.910156 -7.433594 L 7.910156 -9.070312 L 0.792969 -9.070312 L 0.792969 0 L 7.953125 0 L 7.953125 -1.648438 Z M 2.863281 -1.648438 "/></g></g></g><g fill="#222222" fill-opacity="0.4"><g transform="translate(48.640623, 18.852854)"><g><path d="M 7.582031 -9.070312 L 7.582031 -1.472656 C 7.433594 -1.9375 7.257812 -2.402344 7.09375 -2.78125 L 4.226562 -9.070312 L 0.792969 -9.070312 L 0.792969 0 L 2.78125 0 L 2.78125 -7.582031 C 2.917969 -7.121094 3.097656 -6.65625 3.300781 -6.191406 L 6.136719 0 L 9.574219 0 L 9.574219 -9.070312 Z M 7.582031 -9.070312 "/></g></g></g><g fill="#222222" fill-opacity="0.4"><g transform="translate(59.00197, 18.852854)"><g/></g></g><g fill="#222222" fill-opacity="0.4"><g transform="translate(62.451212, 18.852854)"><g><path d="M 5.605469 -9.070312 L 0.792969 -9.070312 L 0.792969 0 L 2.878906 0 L 2.878906 -3.164062 L 5.605469 -3.164062 C 7.664062 -3.164062 8.484375 -4.488281 8.484375 -6.164062 C 8.484375 -7.746094 7.664062 -9.070312 5.605469 -9.070312 Z M 4.949219 -4.773438 L 2.878906 -4.773438 L 2.878906 -7.460938 L 4.964844 -7.460938 C 5.972656 -7.460938 6.328125 -6.914062 6.328125 -6.152344 C 6.328125 -5.359375 5.960938 -4.773438 4.949219 -4.773438 Z M 4.949219 -4.773438 "/></g></g></g><g fill="#222222" fill-opacity="0.4"><g transform="translate(71.340163, 18.852854)"><g><path d="M 2.863281 -1.648438 L 2.863281 -3.859375 L 7.5 -3.859375 L 7.5 -5.402344 L 2.863281 -5.402344 L 2.863281 -7.433594 L 7.910156 -7.433594 L 7.910156 -9.070312 L 0.792969 -9.070312 L 0.792969 0 L 7.953125 0 L 7.953125 -1.648438 Z M 2.863281 -1.648438 "/></g></g></g><g fill="#222222" fill-opacity="0.4"><g transform="translate(79.970073, 18.852854)"><g><path d="M 0.53125 -2.988281 C 0.601562 -1.335938 1.621094 0.230469 4.609375 0.230469 C 7.445312 0.230469 8.550781 -0.925781 8.550781 -2.714844 C 8.550781 -4.296875 7.625 -5.167969 5.78125 -5.375 L 3.886719 -5.605469 C 3.136719 -5.6875 2.824219 -6.082031 2.824219 -6.613281 C 2.824219 -7.324219 3.410156 -7.773438 4.515625 -7.773438 C 5.714844 -7.773438 6.316406 -7.230469 6.425781 -6.382812 L 8.457031 -6.382812 C 8.347656 -7.992188 7.230469 -9.300781 4.515625 -9.300781 C 1.964844 -9.300781 0.738281 -8.128906 0.738281 -6.492188 C 0.738281 -4.992188 1.636719 -4.105469 3.246094 -3.914062 L 5.25 -3.65625 C 6.054688 -3.546875 6.464844 -3.191406 6.464844 -2.507812 C 6.464844 -1.785156 6.015625 -1.308594 4.636719 -1.308594 C 3.207031 -1.308594 2.605469 -2.019531 2.550781 -2.988281 Z M 0.53125 -2.988281 "/></g></g></g><g fill="#222222" fill-opacity="0.4"><g transform="translate(89.077157, 18.852854)"><g><path d="M 5.359375 0.230469 C 8.566406 0.230469 9.820312 -1.050781 10.011719 -3.667969 L 7.871094 -3.667969 C 7.761719 -2.25 7.078125 -1.472656 5.332031 -1.472656 C 3.519531 -1.472656 2.78125 -2.523438 2.78125 -4.527344 C 2.78125 -6.558594 3.574219 -7.609375 5.402344 -7.609375 C 7.078125 -7.609375 7.71875 -6.847656 7.84375 -5.511719 L 9.96875 -5.511719 C 9.765625 -7.992188 8.496094 -9.300781 5.375 -9.300781 C 1.964844 -9.300781 0.613281 -7.039062 0.613281 -4.527344 C 0.613281 -1.976562 1.949219 0.230469 5.359375 0.230469 Z M 5.359375 0.230469 "/></g></g></g><g fill="#222222" fill-opacity="0.4"><g transform="translate(99.629374, 18.852854)"><g><path d="M 7.871094 0 L 9.957031 0 L 6.765625 -9.070312 L 3.601562 -9.070312 L 0.410156 0 L 2.496094 0 L 3.152344 -1.855469 L 7.214844 -1.855469 Z M 3.710938 -3.449219 L 5.183594 -7.636719 L 6.65625 -3.449219 Z M 3.710938 -3.449219 "/></g></g></g><g fill="#222222" fill-opacity="0.4"><g transform="translate(109.977089, 18.852854)"><g><path d="M 5.15625 -9.070312 L 0.792969 -9.070312 L 0.792969 0 L 5.15625 0 C 8.101562 0 9.4375 -2.15625 9.4375 -4.554688 C 9.4375 -6.941406 8.101562 -9.070312 5.15625 -9.070312 Z M 4.691406 -1.648438 L 2.863281 -1.648438 L 2.863281 -7.433594 L 4.691406 -7.433594 C 6.53125 -7.433594 7.285156 -6.492188 7.285156 -4.554688 C 7.285156 -2.632812 6.546875 -1.648438 4.691406 -1.648438 Z M 4.691406 -1.648438 "/></g></g></g><g fill="#222222" fill-opacity="0.4"><g transform="translate(119.929433, 18.852854)"><g><path d="M 5.402344 0.230469 C 8.878906 0.230469 10.175781 -2.03125 10.175781 -4.527344 C 10.175781 -6.984375 8.878906 -9.300781 5.402344 -9.300781 C 1.921875 -9.300781 0.613281 -6.996094 0.613281 -4.527344 C 0.613281 -2.019531 1.921875 0.230469 5.402344 0.230469 Z M 2.78125 -4.527344 C 2.78125 -6.53125 3.410156 -7.609375 5.402344 -7.609375 C 7.390625 -7.609375 8.019531 -6.53125 8.019531 -4.527344 C 8.019531 -2.550781 7.390625 -1.472656 5.402344 -1.472656 C 3.410156 -1.472656 2.78125 -2.550781 2.78125 -4.527344 Z M 2.78125 -4.527344 "/></g></g></g><g fill="#222222" fill-opacity="0.4"><g transform="translate(130.713416, 18.852854)"><g><path d="M 8.332031 -2.210938 C 8.332031 -3.519531 7.609375 -3.984375 6.683594 -4.214844 C 7.761719 -4.445312 8.578125 -5.304688 8.578125 -6.585938 C 8.578125 -8.0625 7.582031 -9.070312 5.578125 -9.070312 L 0.792969 -9.070312 L 0.792969 0 L 2.878906 0 L 2.878906 -3.503906 L 4.746094 -3.503906 C 5.648438 -3.503906 6.261719 -3.070312 6.261719 -2.046875 L 6.261719 -1.570312 C 6.261719 -0.816406 6.328125 -0.328125 6.4375 0 L 8.511719 0 C 8.414062 -0.4375 8.332031 -0.84375 8.332031 -1.597656 Z M 5.113281 -4.992188 L 2.878906 -4.992188 L 2.878906 -7.460938 L 5.113281 -7.460938 C 6.015625 -7.460938 6.410156 -7.050781 6.410156 -6.289062 C 6.410156 -5.441406 6.054688 -4.992188 5.113281 -4.992188 Z M 5.113281 -4.992188 "/></g></g></g><g fill="#222222" fill-opacity="1"><g transform="translate(10.041634, 18.250012)"><g><path d="M 3.410156 -1.648438 L 8.757812 -7.433594 L 8.757812 -9.070312 L 0.871094 -9.070312 L 0.871094 -7.433594 L 6.109375 -7.433594 L 0.765625 -1.648438 L 0.765625 0 L 8.796875 0 L 8.796875 -1.648438 Z M 3.410156 -1.648438 "/></g></g></g><g fill="#222222" fill-opacity="1"><g transform="translate(19.42138, 18.250012)"><g><path d="M 5.402344 0.230469 C 8.878906 0.230469 10.175781 -2.03125 10.175781 -4.527344 C 10.175781 -6.984375 8.878906 -9.300781 5.402344 -9.300781 C 1.921875 -9.300781 0.613281 -6.996094 0.613281 -4.527344 C 0.613281 -2.019531 1.921875 0.230469 5.402344 0.230469 Z M 2.78125 -4.527344 C 2.78125 -6.53125 3.410156 -7.609375 5.402344 -7.609375 C 7.390625 -7.609375 8.019531 -6.53125 8.019531 -4.527344 C 8.019531 -2.550781 7.390625 -1.472656 5.402344 -1.472656 C 3.410156 -1.472656 2.78125 -2.550781 2.78125 -4.527344 Z M 2.78125 -4.527344 "/></g></g></g><g fill="#222222" fill-opacity="1"><g transform="translate(30.205362, 18.250012)"><g><path d="M 8.332031 -2.210938 C 8.332031 -3.519531 7.609375 -3.984375 6.683594 -4.214844 C 7.761719 -4.445312 8.578125 -5.304688 8.578125 -6.585938 C 8.578125 -8.0625 7.582031 -9.070312 5.578125 -9.070312 L 0.792969 -9.070312 L 0.792969 0 L 2.878906 0 L 2.878906 -3.503906 L 4.746094 -3.503906 C 5.648438 -3.503906 6.261719 -3.070312 6.261719 -2.046875 L 6.261719 -1.570312 C 6.261719 -0.816406 6.328125 -0.328125 6.4375 0 L 8.511719 0 C 8.414062 -0.4375 8.332031 -0.84375 8.332031 -1.597656 Z M 5.113281 -4.992188 L 2.878906 -4.992188 L 2.878906 -7.460938 L 5.113281 -7.460938 C 6.015625 -7.460938 6.410156 -7.050781 6.410156 -6.289062 C 6.410156 -5.441406 6.054688 -4.992188 5.113281 -4.992188 Z M 5.113281 -4.992188 "/></g></g></g><g fill="#222222" fill-opacity="1"><g transform="translate(39.40787, 18.250012)"><g><path d="M 2.863281 -1.648438 L 2.863281 -3.859375 L 7.5 -3.859375 L 7.5 -5.402344 L 2.863281 -5.402344 L 2.863281 -7.433594 L 7.910156 -7.433594 L 7.910156 -9.070312 L 0.792969 -9.070312 L 0.792969 0 L 7.953125 0 L 7.953125 -1.648438 Z M 2.863281 -1.648438 "/></g></g></g><g fill="#222222" fill-opacity="1"><g transform="translate(48.03778, 18.250012)"><g><path d="M 7.582031 -9.070312 L 7.582031 -1.472656 C 7.433594 -1.9375 7.257812 -2.402344 7.09375 -2.78125 L 4.226562 -9.070312 L 0.792969 -9.070312 L 0.792969 0 L 2.78125 0 L 2.78125 -7.582031 C 2.917969 -7.121094 3.097656 -6.65625 3.300781 -6.191406 L 6.136719 0 L 9.574219 0 L 9.574219 -9.070312 Z M 7.582031 -9.070312 "/></g></g></g><g fill="#222222" fill-opacity="1"><g transform="translate(58.399127, 18.250012)"><g/></g></g><g fill="#222222" fill-opacity="1"><g transform="translate(61.84837, 18.250012)"><g><path d="M 5.605469 -9.070312 L 0.792969 -9.070312 L 0.792969 0 L 2.878906 0 L 2.878906 -3.164062 L 5.605469 -3.164062 C 7.664062 -3.164062 8.484375 -4.488281 8.484375 -6.164062 C 8.484375 -7.746094 7.664062 -9.070312 5.605469 -9.070312 Z M 4.949219 -4.773438 L 2.878906 -4.773438 L 2.878906 -7.460938 L 4.964844 -7.460938 C 5.972656 -7.460938 6.328125 -6.914062 6.328125 -6.152344 C 6.328125 -5.359375 5.960938 -4.773438 4.949219 -4.773438 Z M 4.949219 -4.773438 "/></g></g></g><g fill="#222222" fill-opacity="1"><g transform="translate(70.73732, 18.250012)"><g><path d="M 2.863281 -1.648438 L 2.863281 -3.859375 L 7.5 -3.859375 L 7.5 -5.402344 L 2.863281 -5.402344 L 2.863281 -7.433594 L 7.910156 -7.433594 L 7.910156 -9.070312 L 0.792969 -9.070312 L 0.792969 0 L 7.953125 0 L 7.953125 -1.648438 Z M 2.863281 -1.648438 "/></g></g></g><g fill="#222222" fill-opacity="1"><g transform="translate(79.367231, 18.250012)"><g><path d="M 0.53125 -2.988281 C 0.601562 -1.335938 1.621094 0.230469 4.609375 0.230469 C 7.445312 0.230469 8.550781 -0.925781 8.550781 -2.714844 C 8.550781 -4.296875 7.625 -5.167969 5.78125 -5.375 L 3.886719 -5.605469 C 3.136719 -5.6875 2.824219 -6.082031 2.824219 -6.613281 C 2.824219 -7.324219 3.410156 -7.773438 4.515625 -7.773438 C 5.714844 -7.773438 6.316406 -7.230469 6.425781 -6.382812 L 8.457031 -6.382812 C 8.347656 -7.992188 7.230469 -9.300781 4.515625 -9.300781 C 1.964844 -9.300781 0.738281 -8.128906 0.738281 -6.492188 C 0.738281 -4.992188 1.636719 -4.105469 3.246094 -3.914062 L 5.25 -3.65625 C 6.054688 -3.546875 6.464844 -3.191406 6.464844 -2.507812 C 6.464844 -1.785156 6.015625 -1.308594 4.636719 -1.308594 C 3.207031 -1.308594 2.605469 -2.019531 2.550781 -2.988281 Z M 0.53125 -2.988281 "/></g></g></g><g fill="#222222" fill-opacity="1"><g transform="translate(88.474315, 18.250012)"><g><path d="M 5.359375 0.230469 C 8.566406 0.230469 9.820312 -1.050781 10.011719 -3.667969 L 7.871094 -3.667969 C 7.761719 -2.25 7.078125 -1.472656 5.332031 -1.472656 C 3.519531 -1.472656 2.78125 -2.523438 2.78125 -4.527344 C 2.78125 -6.558594 3.574219 -7.609375 5.402344 -7.609375 C 7.078125 -7.609375 7.71875 -6.847656 7.84375 -5.511719 L 9.96875 -5.511719 C 9.765625 -7.992188 8.496094 -9.300781 5.375 -9.300781 C 1.964844 -9.300781 0.613281 -7.039062 0.613281 -4.527344 C 0.613281 -1.976562 1.949219 0.230469 5.359375 0.230469 Z M 5.359375 0.230469 "/></g></g></g><g fill="#222222" fill-opacity="1"><g transform="translate(99.026532, 18.250012)"><g><path d="M 7.871094 0 L 9.957031 0 L 6.765625 -9.070312 L 3.601562 -9.070312 L 0.410156 0 L 2.496094 0 L 3.152344 -1.855469 L 7.214844 -1.855469 Z M 3.710938 -3.449219 L 5.183594 -7.636719 L 6.65625 -3.449219 Z M 3.710938 -3.449219 "/></g></g></g><g fill="#222222" fill-opacity="1"><g transform="translate(109.374247, 18.250012)"><g><path d="M 5.15625 -9.070312 L 0.792969 -9.070312 L 0.792969 0 L 5.15625 0 C 8.101562 0 9.4375 -2.15625 9.4375 -4.554688 C 9.4375 -6.941406 8.101562 -9.070312 5.15625 -9.070312 Z M 4.691406 -1.648438 L 2.863281 -1.648438 L 2.863281 -7.433594 L 4.691406 -7.433594 C 6.53125 -7.433594 7.285156 -6.492188 7.285156 -4.554688 C 7.285156 -2.632812 6.546875 -1.648438 4.691406 -1.648438 Z M 4.691406 -1.648438 "/></g></g></g><g fill="#222222" fill-opacity="1"><g transform="translate(119.326591, 18.250012)"><g><path d="M 5.402344 0.230469 C 8.878906 0.230469 10.175781 -2.03125 10.175781 -4.527344 C 10.175781 -6.984375 8.878906 -9.300781 5.402344 -9.300781 C 1.921875 -9.300781 0.613281 -6.996094 0.613281 -4.527344 C 0.613281 -2.019531 1.921875 0.230469 5.402344 0.230469 Z M 2.78125 -4.527344 C 2.78125 -6.53125 3.410156 -7.609375 5.402344 -7.609375 C 7.390625 -7.609375 8.019531 -6.53125 8.019531 -4.527344 C 8.019531 -2.550781 7.390625 -1.472656 5.402344 -1.472656 C 3.410156 -1.472656 2.78125 -2.550781 2.78125 -4.527344 Z M 2.78125 -4.527344 "/></g></g></g><g fill="#222222" fill-opacity="1"><g transform="translate(130.110573, 18.250012)"><g><path d="M 8.332031 -2.210938 C 8.332031 -3.519531 7.609375 -3.984375 6.683594 -4.214844 C 7.761719 -4.445312 8.578125 -5.304688 8.578125 -6.585938 C 8.578125 -8.0625 7.582031 -9.070312 5.578125 -9.070312 L 0.792969 -9.070312 L 0.792969 0 L 2.878906 0 L 2.878906 -3.503906 L 4.746094 -3.503906 C 5.648438 -3.503906 6.261719 -3.070312 6.261719 -2.046875 L 6.261719 -1.570312 C 6.261719 -0.816406 6.328125 -0.328125 6.4375 0 L 8.511719 0 C 8.414062 -0.4375 8.332031 -0.84375 8.332031 -1.597656 Z M 5.113281 -4.992188 L 2.878906 -4.992188 L 2.878906 -7.460938 L 5.113281 -7.460938 C 6.015625 -7.460938 6.410156 -7.050781 6.410156 -6.289062 C 6.410156 -5.441406 6.054688 -4.992188 5.113281 -4.992188 Z M 5.113281 -4.992188 "/></g></g></g></svg>