<svg xmlns="http://www.w3.org/2000/svg" xmlns:xlink="http://www.w3.org/1999/xlink" width="320" zoomAndPan="magnify" viewBox="0 0 240 33.749998" height="45" preserveAspectRatio="xMidYMid meet" version="1.0"><defs><g/></defs><g fill="#222222" fill-opacity="0.4"><g transform="translate(11.790593, 18.356918)"><g><path d="M 8.546875 0 L 0.1875 0 L 0.1875 -0.046875 L 6.515625 -8.765625 L 3.21875 -8.765625 C 2.65625 -8.765625 2.234375 -8.632812 1.953125 -8.375 C 1.671875 -8.113281 1.472656 -7.671875 1.359375 -7.046875 L 0.921875 -7.046875 L 1.09375 -9.265625 L 8.421875 -9.265625 L 8.421875 -9.21875 L 2.15625 -0.546875 L 5.890625 -0.546875 C 6.296875 -0.546875 6.628906 -0.578125 6.890625 -0.640625 C 7.160156 -0.703125 7.375 -0.816406 7.53125 -0.984375 C 7.695312 -1.148438 7.828125 -1.378906 7.921875 -1.671875 C 8.015625 -1.972656 8.097656 -2.359375 8.171875 -2.828125 L 8.6875 -2.828125 Z M 8.546875 0 "/></g></g></g><g fill="#222222" fill-opacity="0.4"><g transform="translate(21.054803, 18.356918)"><g><path d="M 5.6875 -9.390625 C 6.394531 -9.390625 7.050781 -9.265625 7.65625 -9.015625 C 8.269531 -8.765625 8.800781 -8.421875 9.25 -7.984375 C 9.695312 -7.554688 10.050781 -7.046875 10.3125 -6.453125 C 10.570312 -5.867188 10.703125 -5.238281 10.703125 -4.5625 C 10.703125 -3.90625 10.566406 -3.289062 10.296875 -2.71875 C 10.035156 -2.15625 9.679688 -1.660156 9.234375 -1.234375 C 8.785156 -0.816406 8.253906 -0.484375 7.640625 -0.234375 C 7.035156 0.00390625 6.382812 0.125 5.6875 0.125 C 4.988281 0.125 4.332031 0.00390625 3.71875 -0.234375 C 3.113281 -0.484375 2.585938 -0.816406 2.140625 -1.234375 C 1.691406 -1.660156 1.335938 -2.15625 1.078125 -2.71875 C 0.816406 -3.289062 0.6875 -3.90625 0.6875 -4.5625 C 0.6875 -5.238281 0.8125 -5.867188 1.0625 -6.453125 C 1.320312 -7.046875 1.675781 -7.554688 2.125 -7.984375 C 2.570312 -8.421875 3.097656 -8.765625 3.703125 -9.015625 C 4.316406 -9.265625 4.976562 -9.390625 5.6875 -9.390625 Z M 5.6875 -0.546875 C 6.21875 -0.546875 6.691406 -0.632812 7.109375 -0.8125 C 7.535156 -1 7.898438 -1.265625 8.203125 -1.609375 C 8.503906 -1.953125 8.734375 -2.367188 8.890625 -2.859375 C 9.046875 -3.359375 9.125 -3.914062 9.125 -4.53125 C 9.125 -5.164062 9.046875 -5.738281 8.890625 -6.25 C 8.734375 -6.769531 8.503906 -7.210938 8.203125 -7.578125 C 7.910156 -7.953125 7.550781 -8.234375 7.125 -8.421875 C 6.695312 -8.617188 6.21875 -8.71875 5.6875 -8.71875 C 5.15625 -8.71875 4.675781 -8.617188 4.25 -8.421875 C 3.832031 -8.234375 3.472656 -7.953125 3.171875 -7.578125 C 2.878906 -7.210938 2.648438 -6.769531 2.484375 -6.25 C 2.328125 -5.738281 2.25 -5.164062 2.25 -4.53125 C 2.25 -3.914062 2.328125 -3.359375 2.484375 -2.859375 C 2.648438 -2.367188 2.878906 -1.953125 3.171875 -1.609375 C 3.472656 -1.265625 3.832031 -1 4.25 -0.8125 C 4.675781 -0.632812 5.15625 -0.546875 5.6875 -0.546875 Z M 5.6875 -0.546875 "/></g></g></g><g fill="#222222" fill-opacity="0.4"><g transform="translate(32.436549, 18.356918)"><g><path d="M 7.921875 -6.9375 C 7.921875 -6.300781 7.726562 -5.769531 7.34375 -5.34375 C 6.957031 -4.914062 6.34375 -4.628906 5.5 -4.484375 L 8.15625 -1.28125 C 8.375 -1.019531 8.613281 -0.832031 8.875 -0.71875 C 9.132812 -0.601562 9.445312 -0.515625 9.8125 -0.453125 L 9.8125 0 L 7.484375 0 L 4.53125 -3.78125 C 4.425781 -3.914062 4.328125 -4.019531 4.234375 -4.09375 C 4.148438 -4.175781 4.054688 -4.238281 3.953125 -4.28125 C 3.847656 -4.332031 3.726562 -4.363281 3.59375 -4.375 C 3.46875 -4.382812 3.3125 -4.390625 3.125 -4.390625 L 3.125 -1.890625 C 3.125 -1.585938 3.140625 -1.34375 3.171875 -1.15625 C 3.210938 -0.96875 3.289062 -0.820312 3.40625 -0.71875 C 3.519531 -0.613281 3.6875 -0.539062 3.90625 -0.5 C 4.132812 -0.46875 4.425781 -0.453125 4.78125 -0.453125 L 4.78125 0 L 0.546875 0 L 0.546875 -0.453125 C 0.828125 -0.460938 1.050781 -0.488281 1.21875 -0.53125 C 1.394531 -0.570312 1.53125 -0.640625 1.625 -0.734375 C 1.71875 -0.828125 1.78125 -0.960938 1.8125 -1.140625 C 1.84375 -1.316406 1.859375 -1.546875 1.859375 -1.828125 L 1.859375 -7.4375 C 1.859375 -7.71875 1.84375 -7.941406 1.8125 -8.109375 C 1.789062 -8.285156 1.738281 -8.421875 1.65625 -8.515625 C 1.570312 -8.617188 1.445312 -8.6875 1.28125 -8.71875 C 1.125 -8.757812 0.914062 -8.789062 0.65625 -8.8125 L 0.65625 -9.265625 L 4.4375 -9.265625 C 5.539062 -9.265625 6.394531 -9.054688 7 -8.640625 C 7.613281 -8.234375 7.921875 -7.664062 7.921875 -6.9375 Z M 3.125 -5 L 3.984375 -5 C 4.785156 -5 5.378906 -5.144531 5.765625 -5.4375 C 6.160156 -5.726562 6.359375 -6.207031 6.359375 -6.875 C 6.359375 -7.53125 6.203125 -8 5.890625 -8.28125 C 5.578125 -8.5625 5.09375 -8.703125 4.4375 -8.703125 L 3.328125 -8.703125 C 3.191406 -8.703125 3.125 -8.632812 3.125 -8.5 Z M 3.125 -5 "/></g></g></g><g fill="#222222" fill-opacity="0.4"><g transform="translate(41.917325, 18.356918)"><g><path d="M 3.125 -5.09375 C 3.5625 -5.09375 3.925781 -5.117188 4.21875 -5.171875 C 4.507812 -5.222656 4.738281 -5.300781 4.90625 -5.40625 C 5.082031 -5.519531 5.207031 -5.664062 5.28125 -5.84375 C 5.363281 -6.019531 5.40625 -6.226562 5.40625 -6.46875 L 5.828125 -6.46875 L 5.828125 -3.1875 L 5.40625 -3.1875 C 5.40625 -3.425781 5.367188 -3.632812 5.296875 -3.8125 C 5.234375 -3.988281 5.113281 -4.132812 4.9375 -4.25 C 4.769531 -4.363281 4.535156 -4.453125 4.234375 -4.515625 C 3.941406 -4.578125 3.570312 -4.609375 3.125 -4.609375 L 3.125 -1.890625 C 3.125 -1.617188 3.15625 -1.394531 3.21875 -1.21875 C 3.289062 -1.050781 3.40625 -0.914062 3.5625 -0.8125 C 3.71875 -0.707031 3.921875 -0.628906 4.171875 -0.578125 C 4.429688 -0.535156 4.75 -0.515625 5.125 -0.515625 C 5.550781 -0.515625 5.910156 -0.546875 6.203125 -0.609375 C 6.503906 -0.671875 6.753906 -0.769531 6.953125 -0.90625 C 7.148438 -1.050781 7.304688 -1.242188 7.421875 -1.484375 C 7.546875 -1.722656 7.648438 -2.019531 7.734375 -2.375 L 8.1875 -2.375 L 8.015625 0 L 0.546875 0 L 0.546875 -0.453125 C 0.828125 -0.460938 1.050781 -0.488281 1.21875 -0.53125 C 1.394531 -0.570312 1.53125 -0.640625 1.625 -0.734375 C 1.71875 -0.828125 1.78125 -0.960938 1.8125 -1.140625 C 1.84375 -1.316406 1.859375 -1.546875 1.859375 -1.828125 L 1.859375 -7.4375 C 1.859375 -7.71875 1.84375 -7.941406 1.8125 -8.109375 C 1.789062 -8.285156 1.738281 -8.421875 1.65625 -8.515625 C 1.570312 -8.617188 1.445312 -8.6875 1.28125 -8.71875 C 1.125 -8.757812 0.914062 -8.789062 0.65625 -8.8125 L 0.65625 -9.265625 L 7.609375 -9.265625 L 7.71875 -7.140625 L 7.296875 -7.140625 C 7.253906 -7.460938 7.175781 -7.722656 7.0625 -7.921875 C 6.957031 -8.128906 6.8125 -8.296875 6.625 -8.421875 C 6.4375 -8.546875 6.195312 -8.628906 5.90625 -8.671875 C 5.613281 -8.722656 5.265625 -8.75 4.859375 -8.75 L 3.328125 -8.75 C 3.191406 -8.75 3.125 -8.679688 3.125 -8.546875 Z M 3.125 -5.09375 "/></g></g></g><g fill="#222222" fill-opacity="0.4"><g transform="translate(50.652151, 18.356918)"><g><path d="M 8.34375 0.125 L 2.640625 -7.40625 L 2.59375 -7.40625 L 2.59375 -2.28125 C 2.59375 -1.875 2.601562 -1.550781 2.625 -1.3125 C 2.65625 -1.082031 2.710938 -0.90625 2.796875 -0.78125 C 2.878906 -0.65625 3 -0.570312 3.15625 -0.53125 C 3.3125 -0.488281 3.519531 -0.460938 3.78125 -0.453125 L 3.78125 0 L 0.546875 0 L 0.546875 -0.453125 C 0.828125 -0.460938 1.050781 -0.488281 1.21875 -0.53125 C 1.394531 -0.582031 1.53125 -0.664062 1.625 -0.78125 C 1.71875 -0.90625 1.78125 -1.078125 1.8125 -1.296875 C 1.84375 -1.515625 1.859375 -1.8125 1.859375 -2.1875 L 1.859375 -7.078125 C 1.859375 -7.410156 1.84375 -7.6875 1.8125 -7.90625 C 1.789062 -8.125 1.738281 -8.296875 1.65625 -8.421875 C 1.570312 -8.554688 1.445312 -8.648438 1.28125 -8.703125 C 1.125 -8.753906 0.914062 -8.789062 0.65625 -8.8125 L 0.65625 -9.265625 L 3.046875 -9.265625 L 8.296875 -2.25 L 8.34375 -2.25 L 8.34375 -6.984375 C 8.34375 -7.378906 8.328125 -7.695312 8.296875 -7.9375 C 8.273438 -8.175781 8.222656 -8.359375 8.140625 -8.484375 C 8.054688 -8.609375 7.9375 -8.691406 7.78125 -8.734375 C 7.625 -8.773438 7.414062 -8.800781 7.15625 -8.8125 L 7.15625 -9.265625 L 10.390625 -9.265625 L 10.390625 -8.8125 C 10.109375 -8.800781 9.878906 -8.769531 9.703125 -8.71875 C 9.535156 -8.675781 9.40625 -8.59375 9.3125 -8.46875 C 9.21875 -8.351562 9.15625 -8.179688 9.125 -7.953125 C 9.09375 -7.734375 9.078125 -7.441406 9.078125 -7.078125 L 9.078125 0.125 Z M 8.34375 0.125 "/></g></g></g><g fill="#222222" fill-opacity="0.4"><g transform="translate(61.504513, 18.356918)"><g/></g></g><g fill="#222222" fill-opacity="0.4"><g transform="translate(64.957536, 18.356918)"><g><path d="M 7.921875 -6.9375 C 7.921875 -6.507812 7.847656 -6.128906 7.703125 -5.796875 C 7.566406 -5.460938 7.351562 -5.175781 7.0625 -4.9375 C 6.769531 -4.707031 6.390625 -4.53125 5.921875 -4.40625 C 5.453125 -4.28125 4.882812 -4.21875 4.21875 -4.21875 L 3.125 -4.21875 L 3.125 -1.890625 C 3.125 -1.585938 3.140625 -1.34375 3.171875 -1.15625 C 3.210938 -0.96875 3.289062 -0.820312 3.40625 -0.71875 C 3.519531 -0.613281 3.6875 -0.539062 3.90625 -0.5 C 4.132812 -0.46875 4.425781 -0.453125 4.78125 -0.453125 L 4.78125 0 L 0.546875 0 L 0.546875 -0.453125 C 0.828125 -0.460938 1.050781 -0.488281 1.21875 -0.53125 C 1.394531 -0.570312 1.53125 -0.640625 1.625 -0.734375 C 1.71875 -0.828125 1.78125 -0.960938 1.8125 -1.140625 C 1.84375 -1.316406 1.859375 -1.546875 1.859375 -1.828125 L 1.859375 -7.4375 C 1.859375 -7.71875 1.84375 -7.941406 1.8125 -8.109375 C 1.789062 -8.285156 1.738281 -8.421875 1.65625 -8.515625 C 1.570312 -8.617188 1.445312 -8.6875 1.28125 -8.71875 C 1.125 -8.757812 0.914062 -8.789062 0.65625 -8.8125 L 0.65625 -9.265625 L 4.4375 -9.265625 C 5.539062 -9.265625 6.394531 -9.054688 7 -8.640625 C 7.613281 -8.234375 7.921875 -7.664062 7.921875 -6.9375 Z M 3.125 -4.8125 L 3.984375 -4.8125 C 4.785156 -4.8125 5.378906 -4.960938 5.765625 -5.265625 C 6.160156 -5.578125 6.359375 -6.085938 6.359375 -6.796875 C 6.359375 -7.484375 6.203125 -7.972656 5.890625 -8.265625 C 5.578125 -8.554688 5.09375 -8.703125 4.4375 -8.703125 L 3.328125 -8.703125 C 3.191406 -8.703125 3.125 -8.632812 3.125 -8.5 Z M 3.125 -4.8125 "/></g></g></g><g fill="#222222" fill-opacity="0.4"><g transform="translate(73.223138, 18.356918)"><g><path d="M 3.125 -5.09375 C 3.5625 -5.09375 3.925781 -5.117188 4.21875 -5.171875 C 4.507812 -5.222656 4.738281 -5.300781 4.90625 -5.40625 C 5.082031 -5.519531 5.207031 -5.664062 5.28125 -5.84375 C 5.363281 -6.019531 5.40625 -6.226562 5.40625 -6.46875 L 5.828125 -6.46875 L 5.828125 -3.1875 L 5.40625 -3.1875 C 5.40625 -3.425781 5.367188 -3.632812 5.296875 -3.8125 C 5.234375 -3.988281 5.113281 -4.132812 4.9375 -4.25 C 4.769531 -4.363281 4.535156 -4.453125 4.234375 -4.515625 C 3.941406 -4.578125 3.570312 -4.609375 3.125 -4.609375 L 3.125 -1.890625 C 3.125 -1.617188 3.15625 -1.394531 3.21875 -1.21875 C 3.289062 -1.050781 3.40625 -0.914062 3.5625 -0.8125 C 3.71875 -0.707031 3.921875 -0.628906 4.171875 -0.578125 C 4.429688 -0.535156 4.75 -0.515625 5.125 -0.515625 C 5.550781 -0.515625 5.910156 -0.546875 6.203125 -0.609375 C 6.503906 -0.671875 6.753906 -0.769531 6.953125 -0.90625 C 7.148438 -1.050781 7.304688 -1.242188 7.421875 -1.484375 C 7.546875 -1.722656 7.648438 -2.019531 7.734375 -2.375 L 8.1875 -2.375 L 8.015625 0 L 0.546875 0 L 0.546875 -0.453125 C 0.828125 -0.460938 1.050781 -0.488281 1.21875 -0.53125 C 1.394531 -0.570312 1.53125 -0.640625 1.625 -0.734375 C 1.71875 -0.828125 1.78125 -0.960938 1.8125 -1.140625 C 1.84375 -1.316406 1.859375 -1.546875 1.859375 -1.828125 L 1.859375 -7.4375 C 1.859375 -7.71875 1.84375 -7.941406 1.8125 -8.109375 C 1.789062 -8.285156 1.738281 -8.421875 1.65625 -8.515625 C 1.570312 -8.617188 1.445312 -8.6875 1.28125 -8.71875 C 1.125 -8.757812 0.914062 -8.789062 0.65625 -8.8125 L 0.65625 -9.265625 L 7.609375 -9.265625 L 7.71875 -7.140625 L 7.296875 -7.140625 C 7.253906 -7.460938 7.175781 -7.722656 7.0625 -7.921875 C 6.957031 -8.128906 6.8125 -8.296875 6.625 -8.421875 C 6.4375 -8.546875 6.195312 -8.628906 5.90625 -8.671875 C 5.613281 -8.722656 5.265625 -8.75 4.859375 -8.75 L 3.328125 -8.75 C 3.191406 -8.75 3.125 -8.679688 3.125 -8.546875 Z M 3.125 -5.09375 "/></g></g></g><g fill="#222222" fill-opacity="0.4"><g transform="translate(81.957964, 18.356918)"><g><path d="M 0.703125 -2.828125 L 1.140625 -2.828125 C 1.203125 -2.460938 1.3125 -2.132812 1.46875 -1.84375 C 1.625 -1.5625 1.816406 -1.316406 2.046875 -1.109375 C 2.285156 -0.910156 2.554688 -0.757812 2.859375 -0.65625 C 3.171875 -0.550781 3.507812 -0.5 3.875 -0.5 C 4.46875 -0.5 4.9375 -0.632812 5.28125 -0.90625 C 5.625 -1.1875 5.796875 -1.570312 5.796875 -2.0625 C 5.796875 -2.257812 5.757812 -2.441406 5.6875 -2.609375 C 5.625 -2.773438 5.507812 -2.9375 5.34375 -3.09375 C 5.1875 -3.25 4.972656 -3.40625 4.703125 -3.5625 C 4.441406 -3.71875 4.101562 -3.878906 3.6875 -4.046875 C 3.195312 -4.265625 2.78125 -4.472656 2.4375 -4.671875 C 2.101562 -4.878906 1.832031 -5.085938 1.625 -5.296875 C 1.425781 -5.515625 1.285156 -5.742188 1.203125 -5.984375 C 1.117188 -6.234375 1.078125 -6.515625 1.078125 -6.828125 C 1.078125 -7.203125 1.144531 -7.546875 1.28125 -7.859375 C 1.414062 -8.171875 1.601562 -8.441406 1.84375 -8.671875 C 2.082031 -8.898438 2.363281 -9.078125 2.6875 -9.203125 C 3.019531 -9.328125 3.382812 -9.390625 3.78125 -9.390625 C 4.132812 -9.390625 4.460938 -9.332031 4.765625 -9.21875 C 5.066406 -9.101562 5.375 -8.921875 5.6875 -8.671875 L 6 -9.21875 L 6.28125 -9.21875 L 6.40625 -6.828125 L 5.96875 -6.828125 C 5.769531 -7.484375 5.488281 -7.96875 5.125 -8.28125 C 4.757812 -8.601562 4.320312 -8.765625 3.8125 -8.765625 C 3.320312 -8.765625 2.929688 -8.644531 2.640625 -8.40625 C 2.359375 -8.164062 2.21875 -7.84375 2.21875 -7.4375 C 2.21875 -7.238281 2.25 -7.0625 2.3125 -6.90625 C 2.375 -6.75 2.476562 -6.597656 2.625 -6.453125 C 2.769531 -6.316406 2.957031 -6.175781 3.1875 -6.03125 C 3.414062 -5.894531 3.703125 -5.753906 4.046875 -5.609375 C 4.640625 -5.335938 5.132812 -5.085938 5.53125 -4.859375 C 5.925781 -4.640625 6.238281 -4.414062 6.46875 -4.1875 C 6.707031 -3.957031 6.875 -3.710938 6.96875 -3.453125 C 7.0625 -3.203125 7.109375 -2.921875 7.109375 -2.609375 C 7.109375 -2.210938 7.023438 -1.84375 6.859375 -1.5 C 6.703125 -1.164062 6.476562 -0.878906 6.1875 -0.640625 C 5.90625 -0.398438 5.5625 -0.210938 5.15625 -0.078125 C 4.757812 0.0546875 4.320312 0.125 3.84375 0.125 C 3.382812 0.125 2.972656 0.0625 2.609375 -0.0625 C 2.242188 -0.195312 1.867188 -0.414062 1.484375 -0.71875 L 1.15625 -0.125 L 0.875 -0.125 Z M 0.703125 -2.828125 "/></g></g></g><g fill="#222222" fill-opacity="0.4"><g transform="translate(89.718243, 18.356918)"><g><path d="M 8.296875 -9.265625 L 8.625 -9.265625 L 8.734375 -6.5 L 8.296875 -6.5 C 8.117188 -7.207031 7.773438 -7.757812 7.265625 -8.15625 C 6.765625 -8.5625 6.15625 -8.765625 5.4375 -8.765625 C 4.945312 -8.765625 4.507812 -8.664062 4.125 -8.46875 C 3.738281 -8.28125 3.410156 -8.003906 3.140625 -7.640625 C 2.878906 -7.273438 2.675781 -6.832031 2.53125 -6.3125 C 2.394531 -5.789062 2.328125 -5.203125 2.328125 -4.546875 C 2.328125 -3.253906 2.597656 -2.257812 3.140625 -1.5625 C 3.679688 -0.875 4.457031 -0.53125 5.46875 -0.53125 C 7.019531 -0.53125 8.015625 -1.351562 8.453125 -3 L 8.953125 -3 L 8.953125 0 L 8.53125 0 L 8.25 -0.953125 C 7.40625 -0.234375 6.390625 0.125 5.203125 0.125 C 4.515625 0.125 3.894531 0.015625 3.34375 -0.203125 C 2.800781 -0.421875 2.332031 -0.726562 1.9375 -1.125 C 1.550781 -1.519531 1.25 -2 1.03125 -2.5625 C 0.820312 -3.132812 0.71875 -3.769531 0.71875 -4.46875 C 0.71875 -5.207031 0.828125 -5.875 1.046875 -6.46875 C 1.273438 -7.070312 1.59375 -7.585938 2 -8.015625 C 2.40625 -8.453125 2.890625 -8.789062 3.453125 -9.03125 C 4.023438 -9.269531 4.648438 -9.390625 5.328125 -9.390625 C 5.804688 -9.390625 6.257812 -9.316406 6.6875 -9.171875 C 7.113281 -9.035156 7.578125 -8.816406 8.078125 -8.515625 Z M 8.296875 -9.265625 "/></g></g></g><g fill="#222222" fill-opacity="0.4"><g transform="translate(99.367459, 18.356918)"><g><path d="M 5.875 -3.359375 L 2.65625 -3.359375 C 2.519531 -3.023438 2.40625 -2.734375 2.3125 -2.484375 C 2.21875 -2.234375 2.140625 -2.015625 2.078125 -1.828125 C 2.015625 -1.640625 1.96875 -1.484375 1.9375 -1.359375 C 1.914062 -1.234375 1.90625 -1.128906 1.90625 -1.046875 C 1.90625 -0.816406 1.976562 -0.660156 2.125 -0.578125 C 2.269531 -0.492188 2.507812 -0.453125 2.84375 -0.453125 L 2.84375 0 L -0.078125 0 L -0.078125 -0.453125 C 0.109375 -0.484375 0.269531 -0.515625 0.40625 -0.546875 C 0.539062 -0.585938 0.65625 -0.644531 0.75 -0.71875 C 0.851562 -0.789062 0.941406 -0.882812 1.015625 -1 C 1.085938 -1.113281 1.160156 -1.257812 1.234375 -1.4375 L 4.375 -9.265625 L 4.890625 -9.265625 L 7.609375 -2.484375 C 7.796875 -2.035156 7.957031 -1.675781 8.09375 -1.40625 C 8.226562 -1.132812 8.359375 -0.929688 8.484375 -0.796875 C 8.617188 -0.660156 8.757812 -0.570312 8.90625 -0.53125 C 9.050781 -0.488281 9.226562 -0.46875 9.4375 -0.46875 L 9.4375 0 L 5.515625 0 L 5.515625 -0.46875 C 5.941406 -0.46875 6.234375 -0.503906 6.390625 -0.578125 C 6.554688 -0.660156 6.640625 -0.796875 6.640625 -0.984375 C 6.640625 -1.066406 6.632812 -1.140625 6.625 -1.203125 C 6.625 -1.273438 6.613281 -1.347656 6.59375 -1.421875 C 6.570312 -1.503906 6.539062 -1.597656 6.5 -1.703125 C 6.46875 -1.804688 6.421875 -1.925781 6.359375 -2.0625 Z M 2.90625 -3.953125 L 5.640625 -3.953125 L 4.3125 -7.5 Z M 2.90625 -3.953125 "/></g></g></g><g fill="#222222" fill-opacity="0.4"><g transform="translate(108.655731, 18.356918)"><g><path d="M 0.453125 0 L 0.453125 -0.453125 C 0.765625 -0.460938 1.015625 -0.484375 1.203125 -0.515625 C 1.390625 -0.554688 1.535156 -0.625 1.640625 -0.71875 C 1.742188 -0.820312 1.8125 -0.957031 1.84375 -1.125 C 1.882812 -1.300781 1.90625 -1.535156 1.90625 -1.828125 L 1.90625 -7.4375 C 1.90625 -7.71875 1.890625 -7.941406 1.859375 -8.109375 C 1.828125 -8.285156 1.769531 -8.421875 1.6875 -8.515625 C 1.601562 -8.617188 1.476562 -8.6875 1.3125 -8.71875 C 1.15625 -8.757812 0.953125 -8.789062 0.703125 -8.8125 L 0.703125 -9.265625 L 4.921875 -9.265625 C 5.640625 -9.265625 6.304688 -9.144531 6.921875 -8.90625 C 7.535156 -8.664062 8.066406 -8.332031 8.515625 -7.90625 C 8.960938 -7.476562 9.304688 -6.972656 9.546875 -6.390625 C 9.796875 -5.804688 9.921875 -5.164062 9.921875 -4.46875 C 9.921875 -3.8125 9.804688 -3.207031 9.578125 -2.65625 C 9.347656 -2.113281 9.019531 -1.644531 8.59375 -1.25 C 8.175781 -0.851562 7.671875 -0.546875 7.078125 -0.328125 C 6.492188 -0.109375 5.851562 0 5.15625 0 Z M 3.375 -8.671875 C 3.238281 -8.671875 3.171875 -8.601562 3.171875 -8.46875 L 3.171875 -1.96875 C 3.171875 -1.050781 3.765625 -0.59375 4.953125 -0.59375 C 6.054688 -0.59375 6.898438 -0.914062 7.484375 -1.5625 C 8.066406 -2.21875 8.359375 -3.179688 8.359375 -4.453125 C 8.359375 -5.117188 8.273438 -5.710938 8.109375 -6.234375 C 7.953125 -6.753906 7.722656 -7.191406 7.421875 -7.546875 C 7.128906 -7.910156 6.769531 -8.1875 6.34375 -8.375 C 5.914062 -8.570312 5.429688 -8.671875 4.890625 -8.671875 Z M 3.375 -8.671875 "/></g></g></g><g fill="#222222" fill-opacity="0.4"><g transform="translate(119.291526, 18.356918)"><g><path d="M 5.6875 -9.390625 C 6.394531 -9.390625 7.050781 -9.265625 7.65625 -9.015625 C 8.269531 -8.765625 8.800781 -8.421875 9.25 -7.984375 C 9.695312 -7.554688 10.050781 -7.046875 10.3125 -6.453125 C 10.570312 -5.867188 10.703125 -5.238281 10.703125 -4.5625 C 10.703125 -3.90625 10.566406 -3.289062 10.296875 -2.71875 C 10.035156 -2.15625 9.679688 -1.660156 9.234375 -1.234375 C 8.785156 -0.816406 8.253906 -0.484375 7.640625 -0.234375 C 7.035156 0.00390625 6.382812 0.125 5.6875 0.125 C 4.988281 0.125 4.332031 0.00390625 3.71875 -0.234375 C 3.113281 -0.484375 2.585938 -0.816406 2.140625 -1.234375 C 1.691406 -1.660156 1.335938 -2.15625 1.078125 -2.71875 C 0.816406 -3.289062 0.6875 -3.90625 0.6875 -4.5625 C 0.6875 -5.238281 0.8125 -5.867188 1.0625 -6.453125 C 1.320312 -7.046875 1.675781 -7.554688 2.125 -7.984375 C 2.570312 -8.421875 3.097656 -8.765625 3.703125 -9.015625 C 4.316406 -9.265625 4.976562 -9.390625 5.6875 -9.390625 Z M 5.6875 -0.546875 C 6.21875 -0.546875 6.691406 -0.632812 7.109375 -0.8125 C 7.535156 -1 7.898438 -1.265625 8.203125 -1.609375 C 8.503906 -1.953125 8.734375 -2.367188 8.890625 -2.859375 C 9.046875 -3.359375 9.125 -3.914062 9.125 -4.53125 C 9.125 -5.164062 9.046875 -5.738281 8.890625 -6.25 C 8.734375 -6.769531 8.503906 -7.210938 8.203125 -7.578125 C 7.910156 -7.953125 7.550781 -8.234375 7.125 -8.421875 C 6.695312 -8.617188 6.21875 -8.71875 5.6875 -8.71875 C 5.15625 -8.71875 4.675781 -8.617188 4.25 -8.421875 C 3.832031 -8.234375 3.472656 -7.953125 3.171875 -7.578125 C 2.878906 -7.210938 2.648438 -6.769531 2.484375 -6.25 C 2.328125 -5.738281 2.25 -5.164062 2.25 -4.53125 C 2.25 -3.914062 2.328125 -3.359375 2.484375 -2.859375 C 2.648438 -2.367188 2.878906 -1.953125 3.171875 -1.609375 C 3.472656 -1.265625 3.832031 -1 4.25 -0.8125 C 4.675781 -0.632812 5.15625 -0.546875 5.6875 -0.546875 Z M 5.6875 -0.546875 "/></g></g></g><g fill="#222222" fill-opacity="0.4"><g transform="translate(130.673276, 18.356918)"><g><path d="M 7.921875 -6.9375 C 7.921875 -6.300781 7.726562 -5.769531 7.34375 -5.34375 C 6.957031 -4.914062 6.34375 -4.628906 5.5 -4.484375 L 8.15625 -1.28125 C 8.375 -1.019531 8.613281 -0.832031 8.875 -0.71875 C 9.132812 -0.601562 9.445312 -0.515625 9.8125 -0.453125 L 9.8125 0 L 7.484375 0 L 4.53125 -3.78125 C 4.425781 -3.914062 4.328125 -4.019531 4.234375 -4.09375 C 4.148438 -4.175781 4.054688 -4.238281 3.953125 -4.28125 C 3.847656 -4.332031 3.726562 -4.363281 3.59375 -4.375 C 3.46875 -4.382812 3.3125 -4.390625 3.125 -4.390625 L 3.125 -1.890625 C 3.125 -1.585938 3.140625 -1.34375 3.171875 -1.15625 C 3.210938 -0.96875 3.289062 -0.820312 3.40625 -0.71875 C 3.519531 -0.613281 3.6875 -0.539062 3.90625 -0.5 C 4.132812 -0.46875 4.425781 -0.453125 4.78125 -0.453125 L 4.78125 0 L 0.546875 0 L 0.546875 -0.453125 C 0.828125 -0.460938 1.050781 -0.488281 1.21875 -0.53125 C 1.394531 -0.570312 1.53125 -0.640625 1.625 -0.734375 C 1.71875 -0.828125 1.78125 -0.960938 1.8125 -1.140625 C 1.84375 -1.316406 1.859375 -1.546875 1.859375 -1.828125 L 1.859375 -7.4375 C 1.859375 -7.71875 1.84375 -7.941406 1.8125 -8.109375 C 1.789062 -8.285156 1.738281 -8.421875 1.65625 -8.515625 C 1.570312 -8.617188 1.445312 -8.6875 1.28125 -8.71875 C 1.125 -8.757812 0.914062 -8.789062 0.65625 -8.8125 L 0.65625 -9.265625 L 4.4375 -9.265625 C 5.539062 -9.265625 6.394531 -9.054688 7 -8.640625 C 7.613281 -8.234375 7.921875 -7.664062 7.921875 -6.9375 Z M 3.125 -5 L 3.984375 -5 C 4.785156 -5 5.378906 -5.144531 5.765625 -5.4375 C 6.160156 -5.726562 6.359375 -6.207031 6.359375 -6.875 C 6.359375 -7.53125 6.203125 -8 5.890625 -8.28125 C 5.578125 -8.5625 5.09375 -8.703125 4.4375 -8.703125 L 3.328125 -8.703125 C 3.191406 -8.703125 3.125 -8.632812 3.125 -8.5 Z M 3.125 -5 "/></g></g></g><g fill="#222222" fill-opacity="1"><g transform="translate(11.258761, 17.825086)"><g><path d="M 8.546875 0 L 0.1875 0 L 0.1875 -0.046875 L 6.515625 -8.765625 L 3.21875 -8.765625 C 2.65625 -8.765625 2.234375 -8.632812 1.953125 -8.375 C 1.671875 -8.113281 1.472656 -7.671875 1.359375 -7.046875 L 0.921875 -7.046875 L 1.09375 -9.265625 L 8.421875 -9.265625 L 8.421875 -9.21875 L 2.15625 -0.546875 L 5.890625 -0.546875 C 6.296875 -0.546875 6.628906 -0.578125 6.890625 -0.640625 C 7.160156 -0.703125 7.375 -0.816406 7.53125 -0.984375 C 7.695312 -1.148438 7.828125 -1.378906 7.921875 -1.671875 C 8.015625 -1.972656 8.097656 -2.359375 8.171875 -2.828125 L 8.6875 -2.828125 Z M 8.546875 0 "/></g></g></g><g fill="#222222" fill-opacity="1"><g transform="translate(20.522971, 17.825086)"><g><path d="M 5.6875 -9.390625 C 6.394531 -9.390625 7.050781 -9.265625 7.65625 -9.015625 C 8.269531 -8.765625 8.800781 -8.421875 9.25 -7.984375 C 9.695312 -7.554688 10.050781 -7.046875 10.3125 -6.453125 C 10.570312 -5.867188 10.703125 -5.238281 10.703125 -4.5625 C 10.703125 -3.90625 10.566406 -3.289062 10.296875 -2.71875 C 10.035156 -2.15625 9.679688 -1.660156 9.234375 -1.234375 C 8.785156 -0.816406 8.253906 -0.484375 7.640625 -0.234375 C 7.035156 0.00390625 6.382812 0.125 5.6875 0.125 C 4.988281 0.125 4.332031 0.00390625 3.71875 -0.234375 C 3.113281 -0.484375 2.585938 -0.816406 2.140625 -1.234375 C 1.691406 -1.660156 1.335938 -2.15625 1.078125 -2.71875 C 0.816406 -3.289062 0.6875 -3.90625 0.6875 -4.5625 C 0.6875 -5.238281 0.8125 -5.867188 1.0625 -6.453125 C 1.320312 -7.046875 1.675781 -7.554688 2.125 -7.984375 C 2.570312 -8.421875 3.097656 -8.765625 3.703125 -9.015625 C 4.316406 -9.265625 4.976562 -9.390625 5.6875 -9.390625 Z M 5.6875 -0.546875 C 6.21875 -0.546875 6.691406 -0.632812 7.109375 -0.8125 C 7.535156 -1 7.898438 -1.265625 8.203125 -1.609375 C 8.503906 -1.953125 8.734375 -2.367188 8.890625 -2.859375 C 9.046875 -3.359375 9.125 -3.914062 9.125 -4.53125 C 9.125 -5.164062 9.046875 -5.738281 8.890625 -6.25 C 8.734375 -6.769531 8.503906 -7.210938 8.203125 -7.578125 C 7.910156 -7.953125 7.550781 -8.234375 7.125 -8.421875 C 6.695312 -8.617188 6.21875 -8.71875 5.6875 -8.71875 C 5.15625 -8.71875 4.675781 -8.617188 4.25 -8.421875 C 3.832031 -8.234375 3.472656 -7.953125 3.171875 -7.578125 C 2.878906 -7.210938 2.648438 -6.769531 2.484375 -6.25 C 2.328125 -5.738281 2.25 -5.164062 2.25 -4.53125 C 2.25 -3.914062 2.328125 -3.359375 2.484375 -2.859375 C 2.648438 -2.367188 2.878906 -1.953125 3.171875 -1.609375 C 3.472656 -1.265625 3.832031 -1 4.25 -0.8125 C 4.675781 -0.632812 5.15625 -0.546875 5.6875 -0.546875 Z M 5.6875 -0.546875 "/></g></g></g><g fill="#222222" fill-opacity="1"><g transform="translate(31.904716, 17.825086)"><g><path d="M 7.921875 -6.9375 C 7.921875 -6.300781 7.726562 -5.769531 7.34375 -5.34375 C 6.957031 -4.914062 6.34375 -4.628906 5.5 -4.484375 L 8.15625 -1.28125 C 8.375 -1.019531 8.613281 -0.832031 8.875 -0.71875 C 9.132812 -0.601562 9.445312 -0.515625 9.8125 -0.453125 L 9.8125 0 L 7.484375 0 L 4.53125 -3.78125 C 4.425781 -3.914062 4.328125 -4.019531 4.234375 -4.09375 C 4.148438 -4.175781 4.054688 -4.238281 3.953125 -4.28125 C 3.847656 -4.332031 3.726562 -4.363281 3.59375 -4.375 C 3.46875 -4.382812 3.3125 -4.390625 3.125 -4.390625 L 3.125 -1.890625 C 3.125 -1.585938 3.140625 -1.34375 3.171875 -1.15625 C 3.210938 -0.96875 3.289062 -0.820312 3.40625 -0.71875 C 3.519531 -0.613281 3.6875 -0.539062 3.90625 -0.5 C 4.132812 -0.46875 4.425781 -0.453125 4.78125 -0.453125 L 4.78125 0 L 0.546875 0 L 0.546875 -0.453125 C 0.828125 -0.460938 1.050781 -0.488281 1.21875 -0.53125 C 1.394531 -0.570312 1.53125 -0.640625 1.625 -0.734375 C 1.71875 -0.828125 1.78125 -0.960938 1.8125 -1.140625 C 1.84375 -1.316406 1.859375 -1.546875 1.859375 -1.828125 L 1.859375 -7.4375 C 1.859375 -7.71875 1.84375 -7.941406 1.8125 -8.109375 C 1.789062 -8.285156 1.738281 -8.421875 1.65625 -8.515625 C 1.570312 -8.617188 1.445312 -8.6875 1.28125 -8.71875 C 1.125 -8.757812 0.914062 -8.789062 0.65625 -8.8125 L 0.65625 -9.265625 L 4.4375 -9.265625 C 5.539062 -9.265625 6.394531 -9.054688 7 -8.640625 C 7.613281 -8.234375 7.921875 -7.664062 7.921875 -6.9375 Z M 3.125 -5 L 3.984375 -5 C 4.785156 -5 5.378906 -5.144531 5.765625 -5.4375 C 6.160156 -5.726562 6.359375 -6.207031 6.359375 -6.875 C 6.359375 -7.53125 6.203125 -8 5.890625 -8.28125 C 5.578125 -8.5625 5.09375 -8.703125 4.4375 -8.703125 L 3.328125 -8.703125 C 3.191406 -8.703125 3.125 -8.632812 3.125 -8.5 Z M 3.125 -5 "/></g></g></g><g fill="#222222" fill-opacity="1"><g transform="translate(41.385493, 17.825086)"><g><path d="M 3.125 -5.09375 C 3.5625 -5.09375 3.925781 -5.117188 4.21875 -5.171875 C 4.507812 -5.222656 4.738281 -5.300781 4.90625 -5.40625 C 5.082031 -5.519531 5.207031 -5.664062 5.28125 -5.84375 C 5.363281 -6.019531 5.40625 -6.226562 5.40625 -6.46875 L 5.828125 -6.46875 L 5.828125 -3.1875 L 5.40625 -3.1875 C 5.40625 -3.425781 5.367188 -3.632812 5.296875 -3.8125 C 5.234375 -3.988281 5.113281 -4.132812 4.9375 -4.25 C 4.769531 -4.363281 4.535156 -4.453125 4.234375 -4.515625 C 3.941406 -4.578125 3.570312 -4.609375 3.125 -4.609375 L 3.125 -1.890625 C 3.125 -1.617188 3.15625 -1.394531 3.21875 -1.21875 C 3.289062 -1.050781 3.40625 -0.914062 3.5625 -0.8125 C 3.71875 -0.707031 3.921875 -0.628906 4.171875 -0.578125 C 4.429688 -0.535156 4.75 -0.515625 5.125 -0.515625 C 5.550781 -0.515625 5.910156 -0.546875 6.203125 -0.609375 C 6.503906 -0.671875 6.753906 -0.769531 6.953125 -0.90625 C 7.148438 -1.050781 7.304688 -1.242188 7.421875 -1.484375 C 7.546875 -1.722656 7.648438 -2.019531 7.734375 -2.375 L 8.1875 -2.375 L 8.015625 0 L 0.546875 0 L 0.546875 -0.453125 C 0.828125 -0.460938 1.050781 -0.488281 1.21875 -0.53125 C 1.394531 -0.570312 1.53125 -0.640625 1.625 -0.734375 C 1.71875 -0.828125 1.78125 -0.960938 1.8125 -1.140625 C 1.84375 -1.316406 1.859375 -1.546875 1.859375 -1.828125 L 1.859375 -7.4375 C 1.859375 -7.71875 1.84375 -7.941406 1.8125 -8.109375 C 1.789062 -8.285156 1.738281 -8.421875 1.65625 -8.515625 C 1.570312 -8.617188 1.445312 -8.6875 1.28125 -8.71875 C 1.125 -8.757812 0.914062 -8.789062 0.65625 -8.8125 L 0.65625 -9.265625 L 7.609375 -9.265625 L 7.71875 -7.140625 L 7.296875 -7.140625 C 7.253906 -7.460938 7.175781 -7.722656 7.0625 -7.921875 C 6.957031 -8.128906 6.8125 -8.296875 6.625 -8.421875 C 6.4375 -8.546875 6.195312 -8.628906 5.90625 -8.671875 C 5.613281 -8.722656 5.265625 -8.75 4.859375 -8.75 L 3.328125 -8.75 C 3.191406 -8.75 3.125 -8.679688 3.125 -8.546875 Z M 3.125 -5.09375 "/></g></g></g><g fill="#222222" fill-opacity="1"><g transform="translate(50.120319, 17.825086)"><g><path d="M 8.34375 0.125 L 2.640625 -7.40625 L 2.59375 -7.40625 L 2.59375 -2.28125 C 2.59375 -1.875 2.601562 -1.550781 2.625 -1.3125 C 2.65625 -1.082031 2.710938 -0.90625 2.796875 -0.78125 C 2.878906 -0.65625 3 -0.570312 3.15625 -0.53125 C 3.3125 -0.488281 3.519531 -0.460938 3.78125 -0.453125 L 3.78125 0 L 0.546875 0 L 0.546875 -0.453125 C 0.828125 -0.460938 1.050781 -0.488281 1.21875 -0.53125 C 1.394531 -0.582031 1.53125 -0.664062 1.625 -0.78125 C 1.71875 -0.90625 1.78125 -1.078125 1.8125 -1.296875 C 1.84375 -1.515625 1.859375 -1.8125 1.859375 -2.1875 L 1.859375 -7.078125 C 1.859375 -7.410156 1.84375 -7.6875 1.8125 -7.90625 C 1.789062 -8.125 1.738281 -8.296875 1.65625 -8.421875 C 1.570312 -8.554688 1.445312 -8.648438 1.28125 -8.703125 C 1.125 -8.753906 0.914062 -8.789062 0.65625 -8.8125 L 0.65625 -9.265625 L 3.046875 -9.265625 L 8.296875 -2.25 L 8.34375 -2.25 L 8.34375 -6.984375 C 8.34375 -7.378906 8.328125 -7.695312 8.296875 -7.9375 C 8.273438 -8.175781 8.222656 -8.359375 8.140625 -8.484375 C 8.054688 -8.609375 7.9375 -8.691406 7.78125 -8.734375 C 7.625 -8.773438 7.414062 -8.800781 7.15625 -8.8125 L 7.15625 -9.265625 L 10.390625 -9.265625 L 10.390625 -8.8125 C 10.109375 -8.800781 9.878906 -8.769531 9.703125 -8.71875 C 9.535156 -8.675781 9.40625 -8.59375 9.3125 -8.46875 C 9.21875 -8.351562 9.15625 -8.179688 9.125 -7.953125 C 9.09375 -7.734375 9.078125 -7.441406 9.078125 -7.078125 L 9.078125 0.125 Z M 8.34375 0.125 "/></g></g></g><g fill="#222222" fill-opacity="1"><g transform="translate(60.972681, 17.825086)"><g/></g></g><g fill="#222222" fill-opacity="1"><g transform="translate(64.425703, 17.825086)"><g><path d="M 7.921875 -6.9375 C 7.921875 -6.507812 7.847656 -6.128906 7.703125 -5.796875 C 7.566406 -5.460938 7.351562 -5.175781 7.0625 -4.9375 C 6.769531 -4.707031 6.390625 -4.53125 5.921875 -4.40625 C 5.453125 -4.28125 4.882812 -4.21875 4.21875 -4.21875 L 3.125 -4.21875 L 3.125 -1.890625 C 3.125 -1.585938 3.140625 -1.34375 3.171875 -1.15625 C 3.210938 -0.96875 3.289062 -0.820312 3.40625 -0.71875 C 3.519531 -0.613281 3.6875 -0.539062 3.90625 -0.5 C 4.132812 -0.46875 4.425781 -0.453125 4.78125 -0.453125 L 4.78125 0 L 0.546875 0 L 0.546875 -0.453125 C 0.828125 -0.460938 1.050781 -0.488281 1.21875 -0.53125 C 1.394531 -0.570312 1.53125 -0.640625 1.625 -0.734375 C 1.71875 -0.828125 1.78125 -0.960938 1.8125 -1.140625 C 1.84375 -1.316406 1.859375 -1.546875 1.859375 -1.828125 L 1.859375 -7.4375 C 1.859375 -7.71875 1.84375 -7.941406 1.8125 -8.109375 C 1.789062 -8.285156 1.738281 -8.421875 1.65625 -8.515625 C 1.570312 -8.617188 1.445312 -8.6875 1.28125 -8.71875 C 1.125 -8.757812 0.914062 -8.789062 0.65625 -8.8125 L 0.65625 -9.265625 L 4.4375 -9.265625 C 5.539062 -9.265625 6.394531 -9.054688 7 -8.640625 C 7.613281 -8.234375 7.921875 -7.664062 7.921875 -6.9375 Z M 3.125 -4.8125 L 3.984375 -4.8125 C 4.785156 -4.8125 5.378906 -4.960938 5.765625 -5.265625 C 6.160156 -5.578125 6.359375 -6.085938 6.359375 -6.796875 C 6.359375 -7.484375 6.203125 -7.972656 5.890625 -8.265625 C 5.578125 -8.554688 5.09375 -8.703125 4.4375 -8.703125 L 3.328125 -8.703125 C 3.191406 -8.703125 3.125 -8.632812 3.125 -8.5 Z M 3.125 -4.8125 "/></g></g></g><g fill="#222222" fill-opacity="1"><g transform="translate(72.691305, 17.825086)"><g><path d="M 3.125 -5.09375 C 3.5625 -5.09375 3.925781 -5.117188 4.21875 -5.171875 C 4.507812 -5.222656 4.738281 -5.300781 4.90625 -5.40625 C 5.082031 -5.519531 5.207031 -5.664062 5.28125 -5.84375 C 5.363281 -6.019531 5.40625 -6.226562 5.40625 -6.46875 L 5.828125 -6.46875 L 5.828125 -3.1875 L 5.40625 -3.1875 C 5.40625 -3.425781 5.367188 -3.632812 5.296875 -3.8125 C 5.234375 -3.988281 5.113281 -4.132812 4.9375 -4.25 C 4.769531 -4.363281 4.535156 -4.453125 4.234375 -4.515625 C 3.941406 -4.578125 3.570312 -4.609375 3.125 -4.609375 L 3.125 -1.890625 C 3.125 -1.617188 3.15625 -1.394531 3.21875 -1.21875 C 3.289062 -1.050781 3.40625 -0.914062 3.5625 -0.8125 C 3.71875 -0.707031 3.921875 -0.628906 4.171875 -0.578125 C 4.429688 -0.535156 4.75 -0.515625 5.125 -0.515625 C 5.550781 -0.515625 5.910156 -0.546875 6.203125 -0.609375 C 6.503906 -0.671875 6.753906 -0.769531 6.953125 -0.90625 C 7.148438 -1.050781 7.304688 -1.242188 7.421875 -1.484375 C 7.546875 -1.722656 7.648438 -2.019531 7.734375 -2.375 L 8.1875 -2.375 L 8.015625 0 L 0.546875 0 L 0.546875 -0.453125 C 0.828125 -0.460938 1.050781 -0.488281 1.21875 -0.53125 C 1.394531 -0.570312 1.53125 -0.640625 1.625 -0.734375 C 1.71875 -0.828125 1.78125 -0.960938 1.8125 -1.140625 C 1.84375 -1.316406 1.859375 -1.546875 1.859375 -1.828125 L 1.859375 -7.4375 C 1.859375 -7.71875 1.84375 -7.941406 1.8125 -8.109375 C 1.789062 -8.285156 1.738281 -8.421875 1.65625 -8.515625 C 1.570312 -8.617188 1.445312 -8.6875 1.28125 -8.71875 C 1.125 -8.757812 0.914062 -8.789062 0.65625 -8.8125 L 0.65625 -9.265625 L 7.609375 -9.265625 L 7.71875 -7.140625 L 7.296875 -7.140625 C 7.253906 -7.460938 7.175781 -7.722656 7.0625 -7.921875 C 6.957031 -8.128906 6.8125 -8.296875 6.625 -8.421875 C 6.4375 -8.546875 6.195312 -8.628906 5.90625 -8.671875 C 5.613281 -8.722656 5.265625 -8.75 4.859375 -8.75 L 3.328125 -8.75 C 3.191406 -8.75 3.125 -8.679688 3.125 -8.546875 Z M 3.125 -5.09375 "/></g></g></g><g fill="#222222" fill-opacity="1"><g transform="translate(81.426131, 17.825086)"><g><path d="M 0.703125 -2.828125 L 1.140625 -2.828125 C 1.203125 -2.460938 1.3125 -2.132812 1.46875 -1.84375 C 1.625 -1.5625 1.816406 -1.316406 2.046875 -1.109375 C 2.285156 -0.910156 2.554688 -0.757812 2.859375 -0.65625 C 3.171875 -0.550781 3.507812 -0.5 3.875 -0.5 C 4.46875 -0.5 4.9375 -0.632812 5.28125 -0.90625 C 5.625 -1.1875 5.796875 -1.570312 5.796875 -2.0625 C 5.796875 -2.257812 5.757812 -2.441406 5.6875 -2.609375 C 5.625 -2.773438 5.507812 -2.9375 5.34375 -3.09375 C 5.1875 -3.25 4.972656 -3.40625 4.703125 -3.5625 C 4.441406 -3.71875 4.101562 -3.878906 3.6875 -4.046875 C 3.195312 -4.265625 2.78125 -4.472656 2.4375 -4.671875 C 2.101562 -4.878906 1.832031 -5.085938 1.625 -5.296875 C 1.425781 -5.515625 1.285156 -5.742188 1.203125 -5.984375 C 1.117188 -6.234375 1.078125 -6.515625 1.078125 -6.828125 C 1.078125 -7.203125 1.144531 -7.546875 1.28125 -7.859375 C 1.414062 -8.171875 1.601562 -8.441406 1.84375 -8.671875 C 2.082031 -8.898438 2.363281 -9.078125 2.6875 -9.203125 C 3.019531 -9.328125 3.382812 -9.390625 3.78125 -9.390625 C 4.132812 -9.390625 4.460938 -9.332031 4.765625 -9.21875 C 5.066406 -9.101562 5.375 -8.921875 5.6875 -8.671875 L 6 -9.21875 L 6.28125 -9.21875 L 6.40625 -6.828125 L 5.96875 -6.828125 C 5.769531 -7.484375 5.488281 -7.96875 5.125 -8.28125 C 4.757812 -8.601562 4.320312 -8.765625 3.8125 -8.765625 C 3.320312 -8.765625 2.929688 -8.644531 2.640625 -8.40625 C 2.359375 -8.164062 2.21875 -7.84375 2.21875 -7.4375 C 2.21875 -7.238281 2.25 -7.0625 2.3125 -6.90625 C 2.375 -6.75 2.476562 -6.597656 2.625 -6.453125 C 2.769531 -6.316406 2.957031 -6.175781 3.1875 -6.03125 C 3.414062 -5.894531 3.703125 -5.753906 4.046875 -5.609375 C 4.640625 -5.335938 5.132812 -5.085938 5.53125 -4.859375 C 5.925781 -4.640625 6.238281 -4.414062 6.46875 -4.1875 C 6.707031 -3.957031 6.875 -3.710938 6.96875 -3.453125 C 7.0625 -3.203125 7.109375 -2.921875 7.109375 -2.609375 C 7.109375 -2.210938 7.023438 -1.84375 6.859375 -1.5 C 6.703125 -1.164062 6.476562 -0.878906 6.1875 -0.640625 C 5.90625 -0.398438 5.5625 -0.210938 5.15625 -0.078125 C 4.757812 0.0546875 4.320312 0.125 3.84375 0.125 C 3.382812 0.125 2.972656 0.0625 2.609375 -0.0625 C 2.242188 -0.195312 1.867188 -0.414062 1.484375 -0.71875 L 1.15625 -0.125 L 0.875 -0.125 Z M 0.703125 -2.828125 "/></g></g></g><g fill="#222222" fill-opacity="1"><g transform="translate(89.186411, 17.825086)"><g><path d="M 8.296875 -9.265625 L 8.625 -9.265625 L 8.734375 -6.5 L 8.296875 -6.5 C 8.117188 -7.207031 7.773438 -7.757812 7.265625 -8.15625 C 6.765625 -8.5625 6.15625 -8.765625 5.4375 -8.765625 C 4.945312 -8.765625 4.507812 -8.664062 4.125 -8.46875 C 3.738281 -8.28125 3.410156 -8.003906 3.140625 -7.640625 C 2.878906 -7.273438 2.675781 -6.832031 2.53125 -6.3125 C 2.394531 -5.789062 2.328125 -5.203125 2.328125 -4.546875 C 2.328125 -3.253906 2.597656 -2.257812 3.140625 -1.5625 C 3.679688 -0.875 4.457031 -0.53125 5.46875 -0.53125 C 7.019531 -0.53125 8.015625 -1.351562 8.453125 -3 L 8.953125 -3 L 8.953125 0 L 8.53125 0 L 8.25 -0.953125 C 7.40625 -0.234375 6.390625 0.125 5.203125 0.125 C 4.515625 0.125 3.894531 0.015625 3.34375 -0.203125 C 2.800781 -0.421875 2.332031 -0.726562 1.9375 -1.125 C 1.550781 -1.519531 1.25 -2 1.03125 -2.5625 C 0.820312 -3.132812 0.71875 -3.769531 0.71875 -4.46875 C 0.71875 -5.207031 0.828125 -5.875 1.046875 -6.46875 C 1.273438 -7.070312 1.59375 -7.585938 2 -8.015625 C 2.40625 -8.453125 2.890625 -8.789062 3.453125 -9.03125 C 4.023438 -9.269531 4.648438 -9.390625 5.328125 -9.390625 C 5.804688 -9.390625 6.257812 -9.316406 6.6875 -9.171875 C 7.113281 -9.035156 7.578125 -8.816406 8.078125 -8.515625 Z M 8.296875 -9.265625 "/></g></g></g><g fill="#222222" fill-opacity="1"><g transform="translate(98.835627, 17.825086)"><g><path d="M 5.875 -3.359375 L 2.65625 -3.359375 C 2.519531 -3.023438 2.40625 -2.734375 2.3125 -2.484375 C 2.21875 -2.234375 2.140625 -2.015625 2.078125 -1.828125 C 2.015625 -1.640625 1.96875 -1.484375 1.9375 -1.359375 C 1.914062 -1.234375 1.90625 -1.128906 1.90625 -1.046875 C 1.90625 -0.816406 1.976562 -0.660156 2.125 -0.578125 C 2.269531 -0.492188 2.507812 -0.453125 2.84375 -0.453125 L 2.84375 0 L -0.078125 0 L -0.078125 -0.453125 C 0.109375 -0.484375 0.269531 -0.515625 0.40625 -0.546875 C 0.539062 -0.585938 0.65625 -0.644531 0.75 -0.71875 C 0.851562 -0.789062 0.941406 -0.882812 1.015625 -1 C 1.085938 -1.113281 1.160156 -1.257812 1.234375 -1.4375 L 4.375 -9.265625 L 4.890625 -9.265625 L 7.609375 -2.484375 C 7.796875 -2.035156 7.957031 -1.675781 8.09375 -1.40625 C 8.226562 -1.132812 8.359375 -0.929688 8.484375 -0.796875 C 8.617188 -0.660156 8.757812 -0.570312 8.90625 -0.53125 C 9.050781 -0.488281 9.226562 -0.46875 9.4375 -0.46875 L 9.4375 0 L 5.515625 0 L 5.515625 -0.46875 C 5.941406 -0.46875 6.234375 -0.503906 6.390625 -0.578125 C 6.554688 -0.660156 6.640625 -0.796875 6.640625 -0.984375 C 6.640625 -1.066406 6.632812 -1.140625 6.625 -1.203125 C 6.625 -1.273438 6.613281 -1.347656 6.59375 -1.421875 C 6.570312 -1.503906 6.539062 -1.597656 6.5 -1.703125 C 6.46875 -1.804688 6.421875 -1.925781 6.359375 -2.0625 Z M 2.90625 -3.953125 L 5.640625 -3.953125 L 4.3125 -7.5 Z M 2.90625 -3.953125 "/></g></g></g><g fill="#222222" fill-opacity="1"><g transform="translate(108.123898, 17.825086)"><g><path d="M 0.453125 0 L 0.453125 -0.453125 C 0.765625 -0.460938 1.015625 -0.484375 1.203125 -0.515625 C 1.390625 -0.554688 1.535156 -0.625 1.640625 -0.71875 C 1.742188 -0.820312 1.8125 -0.957031 1.84375 -1.125 C 1.882812 -1.300781 1.90625 -1.535156 1.90625 -1.828125 L 1.90625 -7.4375 C 1.90625 -7.71875 1.890625 -7.941406 1.859375 -8.109375 C 1.828125 -8.285156 1.769531 -8.421875 1.6875 -8.515625 C 1.601562 -8.617188 1.476562 -8.6875 1.3125 -8.71875 C 1.15625 -8.757812 0.953125 -8.789062 0.703125 -8.8125 L 0.703125 -9.265625 L 4.921875 -9.265625 C 5.640625 -9.265625 6.304688 -9.144531 6.921875 -8.90625 C 7.535156 -8.664062 8.066406 -8.332031 8.515625 -7.90625 C 8.960938 -7.476562 9.304688 -6.972656 9.546875 -6.390625 C 9.796875 -5.804688 9.921875 -5.164062 9.921875 -4.46875 C 9.921875 -3.8125 9.804688 -3.207031 9.578125 -2.65625 C 9.347656 -2.113281 9.019531 -1.644531 8.59375 -1.25 C 8.175781 -0.851562 7.671875 -0.546875 7.078125 -0.328125 C 6.492188 -0.109375 5.851562 0 5.15625 0 Z M 3.375 -8.671875 C 3.238281 -8.671875 3.171875 -8.601562 3.171875 -8.46875 L 3.171875 -1.96875 C 3.171875 -1.050781 3.765625 -0.59375 4.953125 -0.59375 C 6.054688 -0.59375 6.898438 -0.914062 7.484375 -1.5625 C 8.066406 -2.21875 8.359375 -3.179688 8.359375 -4.453125 C 8.359375 -5.117188 8.273438 -5.710938 8.109375 -6.234375 C 7.953125 -6.753906 7.722656 -7.191406 7.421875 -7.546875 C 7.128906 -7.910156 6.769531 -8.1875 6.34375 -8.375 C 5.914062 -8.570312 5.429688 -8.671875 4.890625 -8.671875 Z M 3.375 -8.671875 "/></g></g></g><g fill="#222222" fill-opacity="1"><g transform="translate(118.759694, 17.825086)"><g><path d="M 5.6875 -9.390625 C 6.394531 -9.390625 7.050781 -9.265625 7.65625 -9.015625 C 8.269531 -8.765625 8.800781 -8.421875 9.25 -7.984375 C 9.695312 -7.554688 10.050781 -7.046875 10.3125 -6.453125 C 10.570312 -5.867188 10.703125 -5.238281 10.703125 -4.5625 C 10.703125 -3.90625 10.566406 -3.289062 10.296875 -2.71875 C 10.035156 -2.15625 9.679688 -1.660156 9.234375 -1.234375 C 8.785156 -0.816406 8.253906 -0.484375 7.640625 -0.234375 C 7.035156 0.00390625 6.382812 0.125 5.6875 0.125 C 4.988281 0.125 4.332031 0.00390625 3.71875 -0.234375 C 3.113281 -0.484375 2.585938 -0.816406 2.140625 -1.234375 C 1.691406 -1.660156 1.335938 -2.15625 1.078125 -2.71875 C 0.816406 -3.289062 0.6875 -3.90625 0.6875 -4.5625 C 0.6875 -5.238281 0.8125 -5.867188 1.0625 -6.453125 C 1.320312 -7.046875 1.675781 -7.554688 2.125 -7.984375 C 2.570312 -8.421875 3.097656 -8.765625 3.703125 -9.015625 C 4.316406 -9.265625 4.976562 -9.390625 5.6875 -9.390625 Z M 5.6875 -0.546875 C 6.21875 -0.546875 6.691406 -0.632812 7.109375 -0.8125 C 7.535156 -1 7.898438 -1.265625 8.203125 -1.609375 C 8.503906 -1.953125 8.734375 -2.367188 8.890625 -2.859375 C 9.046875 -3.359375 9.125 -3.914062 9.125 -4.53125 C 9.125 -5.164062 9.046875 -5.738281 8.890625 -6.25 C 8.734375 -6.769531 8.503906 -7.210938 8.203125 -7.578125 C 7.910156 -7.953125 7.550781 -8.234375 7.125 -8.421875 C 6.695312 -8.617188 6.21875 -8.71875 5.6875 -8.71875 C 5.15625 -8.71875 4.675781 -8.617188 4.25 -8.421875 C 3.832031 -8.234375 3.472656 -7.953125 3.171875 -7.578125 C 2.878906 -7.210938 2.648438 -6.769531 2.484375 -6.25 C 2.328125 -5.738281 2.25 -5.164062 2.25 -4.53125 C 2.25 -3.914062 2.328125 -3.359375 2.484375 -2.859375 C 2.648438 -2.367188 2.878906 -1.953125 3.171875 -1.609375 C 3.472656 -1.265625 3.832031 -1 4.25 -0.8125 C 4.675781 -0.632812 5.15625 -0.546875 5.6875 -0.546875 Z M 5.6875 -0.546875 "/></g></g></g><g fill="#222222" fill-opacity="1"><g transform="translate(130.141443, 17.825086)"><g><path d="M 7.921875 -6.9375 C 7.921875 -6.300781 7.726562 -5.769531 7.34375 -5.34375 C 6.957031 -4.914062 6.34375 -4.628906 5.5 -4.484375 L 8.15625 -1.28125 C 8.375 -1.019531 8.613281 -0.832031 8.875 -0.71875 C 9.132812 -0.601562 9.445312 -0.515625 9.8125 -0.453125 L 9.8125 0 L 7.484375 0 L 4.53125 -3.78125 C 4.425781 -3.914062 4.328125 -4.019531 4.234375 -4.09375 C 4.148438 -4.175781 4.054688 -4.238281 3.953125 -4.28125 C 3.847656 -4.332031 3.726562 -4.363281 3.59375 -4.375 C 3.46875 -4.382812 3.3125 -4.390625 3.125 -4.390625 L 3.125 -1.890625 C 3.125 -1.585938 3.140625 -1.34375 3.171875 -1.15625 C 3.210938 -0.96875 3.289062 -0.820312 3.40625 -0.71875 C 3.519531 -0.613281 3.6875 -0.539062 3.90625 -0.5 C 4.132812 -0.46875 4.425781 -0.453125 4.78125 -0.453125 L 4.78125 0 L 0.546875 0 L 0.546875 -0.453125 C 0.828125 -0.460938 1.050781 -0.488281 1.21875 -0.53125 C 1.394531 -0.570312 1.53125 -0.640625 1.625 -0.734375 C 1.71875 -0.828125 1.78125 -0.960938 1.8125 -1.140625 C 1.84375 -1.316406 1.859375 -1.546875 1.859375 -1.828125 L 1.859375 -7.4375 C 1.859375 -7.71875 1.84375 -7.941406 1.8125 -8.109375 C 1.789062 -8.285156 1.738281 -8.421875 1.65625 -8.515625 C 1.570312 -8.617188 1.445312 -8.6875 1.28125 -8.71875 C 1.125 -8.757812 0.914062 -8.789062 0.65625 -8.8125 L 0.65625 -9.265625 L 4.4375 -9.265625 C 5.539062 -9.265625 6.394531 -9.054688 7 -8.640625 C 7.613281 -8.234375 7.921875 -7.664062 7.921875 -6.9375 Z M 3.125 -5 L 3.984375 -5 C 4.785156 -5 5.378906 -5.144531 5.765625 -5.4375 C 6.160156 -5.726562 6.359375 -6.207031 6.359375 -6.875 C 6.359375 -7.53125 6.203125 -8 5.890625 -8.28125 C 5.578125 -8.5625 5.09375 -8.703125 4.4375 -8.703125 L 3.328125 -8.703125 C 3.191406 -8.703125 3.125 -8.632812 3.125 -8.5 Z M 3.125 -5 "/></g></g></g><g fill="#737373" fill-opacity="1"><g transform="translate(59.530422, 25.091242)"><g><path d="M 1.230469 0 C 2.320312 0 2.925781 -0.582031 2.925781 -1.617188 C 2.925781 -2.65625 2.328125 -3.238281 1.230469 -3.238281 L 0.289062 -3.238281 L 0.289062 0 Z M 0.898438 -2.691406 L 1.226562 -2.691406 C 1.878906 -2.691406 2.3125 -2.367188 2.3125 -1.617188 C 2.3125 -0.816406 1.867188 -0.546875 1.222656 -0.546875 L 0.898438 -0.546875 Z M 0.898438 -2.691406 "/></g></g></g><g fill="#737373" fill-opacity="1"><g transform="translate(63.758324, 25.091242)"><g><path d="M 2.449219 0 L 2.449219 -0.546875 L 0.898438 -0.546875 L 0.898438 -1.351562 L 2.289062 -1.351562 L 2.289062 -1.894531 L 0.898438 -1.894531 L 0.898438 -2.691406 L 2.449219 -2.691406 L 2.449219 -3.238281 L 0.289062 -3.238281 L 0.289062 0 Z M 2.449219 0 "/></g></g></g><g fill="#737373" fill-opacity="1"><g transform="translate(67.532023, 25.091242)"><g><path d="M 1.824219 0 L 2.96875 -3.238281 L 2.328125 -3.238281 L 1.488281 -0.671875 L 0.652344 -3.238281 L 0.0117188 -3.238281 L 1.15625 0 Z M 1.824219 0 "/></g></g></g><g fill="#737373" fill-opacity="1"><g transform="translate(71.649558, 25.091242)"><g/></g></g><g fill="#737373" fill-opacity="1"><g transform="translate(73.924816, 25.091242)"><g><path d="M 1.546875 -0.246094 L 1.546875 -1.21875 L 2.519531 -1.21875 L 2.519531 -1.648438 L 1.546875 -1.648438 L 1.546875 -2.617188 L 1.113281 -2.617188 L 1.113281 -1.648438 L 0.140625 -1.648438 L 0.140625 -1.21875 L 1.113281 -1.21875 L 1.113281 -0.246094 Z M 1.546875 -0.246094 "/></g></g></g><g fill="#737373" fill-opacity="1"><g transform="translate(77.728229, 25.091242)"><g/></g></g><g fill="#737373" fill-opacity="1"><g transform="translate(80.003487, 25.091242)"><g><path d="M 1.574219 0.0585938 C 2.339844 0.0585938 2.785156 -0.328125 2.785156 -0.9375 C 2.785156 -1.671875 2.144531 -1.816406 1.605469 -1.9375 C 1.210938 -2.023438 0.863281 -2.101562 0.863281 -2.398438 C 0.863281 -2.644531 1.082031 -2.777344 1.386719 -2.777344 C 1.71875 -2.777344 1.996094 -2.617188 2.074219 -2.273438 L 2.699219 -2.273438 C 2.597656 -2.976562 2.023438 -3.296875 1.402344 -3.296875 C 0.746094 -3.296875 0.253906 -2.972656 0.253906 -2.347656 C 0.253906 -1.664062 0.859375 -1.53125 1.386719 -1.414062 C 1.800781 -1.324219 2.167969 -1.242188 2.167969 -0.910156 C 2.167969 -0.597656 1.914062 -0.460938 1.578125 -0.460938 C 1.238281 -0.460938 0.886719 -0.589844 0.78125 -1.050781 L 0.148438 -1.050781 C 0.230469 -0.214844 0.949219 0.0585938 1.574219 0.0585938 Z M 1.574219 0.0585938 "/></g></g></g><g fill="#737373" fill-opacity="1"><g transform="translate(84.09555, 25.091242)"><g><path d="M 2.449219 0 L 2.449219 -0.546875 L 0.898438 -0.546875 L 0.898438 -1.351562 L 2.289062 -1.351562 L 2.289062 -1.894531 L 0.898438 -1.894531 L 0.898438 -2.691406 L 2.449219 -2.691406 L 2.449219 -3.238281 L 0.289062 -3.238281 L 0.289062 0 Z M 2.449219 0 "/></g></g></g><g fill="#737373" fill-opacity="1"><g transform="translate(87.869249, 25.091242)"><g><path d="M 1.734375 0.0585938 C 2.808594 0.0585938 3.3125 -0.726562 3.3125 -1.621094 C 3.3125 -2.515625 2.808594 -3.296875 1.734375 -3.296875 C 0.667969 -3.296875 0.164062 -2.515625 0.164062 -1.621094 C 0.164062 -0.726562 0.667969 0.0585938 1.734375 0.0585938 Z M 1.734375 -0.488281 C 1.144531 -0.488281 0.800781 -0.945312 0.800781 -1.621094 C 0.800781 -2.292969 1.144531 -2.746094 1.734375 -2.746094 C 2.335938 -2.746094 2.675781 -2.292969 2.675781 -1.621094 C 2.675781 -0.945312 2.335938 -0.488281 1.734375 -0.488281 Z M 1.734375 -0.488281 "/></g></g></g></svg>